# Blender 5.2.0 LTS
# www.blender.org
mtllib blade.mtl
o crysta_Meshpart1Mtl.002
v 0.582559 1.573490 0.104505
v 0.631596 1.418710 0.143249
v 0.639124 1.322570 0.069359
v 0.853630 2.256350 -0.015684
v 0.816830 2.010370 0.006884
v 0.772860 1.905750 -0.097725
v -1.124917 1.833630 0.121358
v -1.085602 1.689030 0.033578
v -1.091754 1.765740 0.062257
v -1.372200 1.525320 0.003314
v -1.454250 1.420810 -0.002790
v -1.451870 1.581850 -0.124104
v -1.555630 1.459080 -0.124343
v -1.611560 1.295540 -0.010902
v -1.719130 1.240850 -0.068556
v -1.368740 1.696480 -0.122216
v -1.370470 1.636110 -0.073253
v -1.451870 1.581850 -0.124104
v -1.454250 1.420810 -0.002790
v -1.509710 1.525850 -0.159681
v -1.451870 1.581850 -0.124104
v -1.538940 1.432810 0.079372
v -1.730570 1.095010 0.003356
v -1.611560 1.295540 -0.010902
v -1.479660 1.668690 -0.066713
v -1.555690 1.589940 -0.099883
v -1.546960 1.651010 0.010974
v 0.614648 1.913740 -0.111629
v 0.426688 2.097660 -0.117173
v 0.563978 1.960000 -0.069024
v -1.438570 1.734590 -0.015416
v -1.270910 1.846240 -0.012628
v -1.159490 1.880960 -0.084698
v -1.388080 1.803360 0.036175
v 0.360644 2.033930 0.123704
v 0.236930 2.128180 0.062554
v 0.080764 2.190240 0.098781
v -1.438570 1.734590 -0.015416
v -1.403570 1.674870 0.101939
v -1.246931 1.759560 0.098108
v -1.368740 1.696480 -0.122216
v -1.159490 1.880960 -0.084698
v -1.438570 1.734590 -0.015416
v -0.678285 2.079700 0.034737
v -0.871124 2.098300 -0.007909
v -0.710426 2.045550 0.114565
v -0.611479 2.073230 -0.069391
v -0.671583 2.005110 -0.148979
v -0.808530 2.015830 -0.087463
v -1.519650 1.721840 0.006772
v -1.438570 1.734590 -0.015416
v -1.368740 1.696480 -0.122216
v 0.135779 2.180760 -0.105959
v -0.042455 2.154950 -0.122901
v -0.045564 2.261860 0.005583
v -0.101791 2.141160 0.128464
v -0.045564 2.261860 0.005583
v -0.229045 2.135260 0.072646
v -0.678285 2.079700 0.034737
v -0.710426 2.045550 0.114565
v -0.531924 2.005670 0.120296
v -0.045564 2.261860 0.005583
v -0.042455 2.154950 -0.122901
v -0.180736 2.167590 -0.036952
v -0.045564 2.261860 0.005583
v 0.080764 2.190240 0.098781
v -0.101791 2.141160 0.128464
v -0.982830 2.096450 -0.022853
v -0.871124 2.098300 -0.007909
v -0.808530 2.015830 -0.087463
v -1.270910 1.846240 -0.012628
v -1.388080 1.803360 0.036175
v -1.246931 1.759560 0.098108
v -1.546960 1.651010 0.010974
v -1.555690 1.589940 -0.099883
v -1.612180 1.645220 0.012556
v -1.403570 1.674870 0.101939
v -1.438570 1.734590 -0.015416
v -1.519650 1.721840 0.006772
v 0.772860 1.905750 -0.097725
v 0.816830 2.010370 0.006884
v 1.136710 2.026500 0.000062
v -1.555630 1.459080 -0.124343
v -1.614650 1.441900 -0.134332
v -1.642060 1.529960 -0.008602
v -1.403570 1.674870 0.101939
v -1.546960 1.651010 0.010974
v -1.530500 1.513490 0.128038
v -1.044407 2.027440 0.007173
v -1.246931 1.759560 0.098108
v -1.124917 1.833630 0.121358
v -1.403570 1.674870 0.101939
v -1.519650 1.721840 0.006772
v -1.546960 1.651010 0.010974
v -0.871124 2.098300 -0.007909
v -0.889336 1.899960 0.136355
v -0.710426 2.045550 0.114565
v 0.612640 2.140710 -0.016020
v 0.482439 2.197140 0.033408
v 0.531892 1.902500 0.146200
v -0.177638 2.067810 0.138129
v -0.229045 2.135260 0.072646
v -0.531924 2.005670 0.120296
v 0.217538 2.406490 -0.006422
v -0.045564 2.261860 0.005583
v 0.080764 2.190240 0.098781
v -0.229045 2.135260 0.072646
v -0.495911 2.094080 0.055889
v -0.531924 2.005670 0.120296
v -0.495911 2.094080 0.055889
v -0.678285 2.079700 0.034737
v -0.531924 2.005670 0.120296
v -0.889336 1.899960 0.136355
v -1.044407 2.027440 0.007173
v -1.124917 1.833630 0.121358
v -0.889336 1.899960 0.136355
v -0.982830 2.096450 -0.022853
v -1.044407 2.027440 0.007173
v -0.871124 2.098300 -0.007909
v -1.722340 1.396320 -0.007888
v -1.821680 1.138200 0.020476
v -1.741220 1.221610 0.035082
v -0.045564 2.261860 0.005583
v -0.212227 2.233440 0.008612
v -0.229045 2.135260 0.072646
v -0.212227 2.233440 0.008612
v -0.354574 2.255060 -0.005207
v -0.229045 2.135260 0.072646
v 0.285436 2.240790 -0.015888
v 0.080764 2.190240 0.098781
v 0.236930 2.128180 0.062554
v 0.602990 1.817820 0.144131
v 0.678904 1.790550 0.083507
v 0.654670 1.907120 0.090173
v -0.678285 2.079700 0.034737
v -0.488182 2.199850 -0.005269
v -0.871124 2.098300 -0.007909
v -0.495911 2.094080 0.055889
v -0.488182 2.199850 -0.005269
v -0.678285 2.079700 0.034737
v -0.177638 2.067810 0.138129
v -0.101791 2.141160 0.128464
v -0.229045 2.135260 0.072646
v 0.360644 2.033930 0.123704
v 0.482439 2.197140 0.033408
v 0.236930 2.128180 0.062554
v 0.654670 1.907120 0.090173
v 0.534487 1.825580 0.150179
v 0.602990 1.817820 0.144131
v -0.354574 2.255060 -0.005207
v -0.495911 2.094080 0.055889
v -0.229045 2.135260 0.072646
v -0.488182 2.199850 -0.005269
v 0.360644 2.033930 0.123704
v 0.531892 1.902500 0.146200
v 0.482439 2.197140 0.033408
v -1.044407 2.027440 0.007173
v -1.180799 1.978140 0.007426
v -1.246931 1.759560 0.098108
v 0.056828 2.066260 0.150692
v 0.360644 2.033930 0.123704
v 0.080764 2.190240 0.098781
v 0.080764 2.190240 0.098781
v -0.101791 2.141160 0.128464
v 0.056828 2.066260 0.150692
v 0.559755 2.333010 -0.012015
v 0.285436 2.240790 -0.015888
v 0.482439 2.197140 0.033408
v 0.236930 2.128180 0.062554
v 0.728660 1.689860 0.088696
v 0.678904 1.790550 0.083507
v 0.587371 1.745020 0.130173
v 0.678904 1.790550 0.083507
v 0.728660 1.689860 0.088696
v 0.898720 1.821280 -0.009081
v 1.216530 1.684400 -0.004211
v 0.898720 1.821280 -0.009081
v 0.728660 1.689860 0.088696
v -1.530500 1.513490 0.128038
v -1.546960 1.651010 0.010974
v -1.612180 1.645220 0.012556
v 0.654670 1.907120 0.090173
v 0.531892 1.902500 0.146200
v 0.534487 1.825580 0.150179
v 0.678904 1.790550 0.083507
v 0.816830 2.010370 0.006884
v 0.654670 1.907120 0.090173
v 0.612640 2.140710 -0.016020
v 0.531892 1.902500 0.146200
v 0.853630 2.256350 -0.015684
v 0.816830 2.010370 0.006884
v 0.853630 2.256350 -0.015684
v 0.654670 1.907120 0.090173
v 0.654670 1.907120 0.090173
v 0.853630 2.256350 -0.015684
v 0.531892 1.902500 0.146200
v 0.933880 1.548140 -0.000447
v 0.582559 1.573490 0.104505
v 0.730120 1.500310 0.072315
v 0.612640 2.140710 -0.016020
v 0.559755 2.333010 -0.012015
v 0.482439 2.197140 0.033408
v 0.285436 2.240790 -0.015888
v 0.217538 2.406490 -0.006422
v 0.080764 2.190240 0.098781
v 0.678904 1.790550 0.083507
v 1.136710 2.026500 0.000062
v 0.816830 2.010370 0.006884
v 0.056828 2.066260 0.150692
v -0.101791 2.141160 0.128464
v -0.177638 2.067810 0.138129
v -1.246931 1.759560 0.098108
v -1.388080 1.803360 0.036175
v -1.438570 1.734590 -0.015416
v 0.602990 1.817820 0.144131
v 0.587371 1.745020 0.130173
v 0.678904 1.790550 0.083507
v -0.710426 2.045550 0.114565
v -0.889336 1.899960 0.136355
v -0.531924 2.005670 0.120296
v -1.821730 0.963541 0.015517
v -1.741220 1.221610 0.035082
v -1.821680 1.138200 0.020476
v 0.773910 1.327110 -0.017920
v 0.933880 1.548140 -0.000447
v 0.730120 1.500310 0.072315
v 0.728660 1.689860 0.088696
v 0.587371 1.745020 0.130173
v 0.582559 1.573490 0.104505
v 0.933880 1.548140 -0.000447
v 0.728660 1.689860 0.088696
v 0.582559 1.573490 0.104505
v 0.730120 1.500310 0.072315
v 0.582559 1.573490 0.104505
v 0.639124 1.322570 0.069359
v 0.933880 1.548140 -0.000447
v 1.216530 1.684400 -0.004211
v 0.728660 1.689860 0.088696
v -0.047674 1.878830 0.120776
v 0.056828 2.066260 0.150692
v -0.177638 2.067810 0.138129
v 0.678904 1.790550 0.083507
v 0.898720 1.821280 -0.009081
v 1.136710 2.026500 0.000062
v -1.538940 1.432810 0.079372
v -1.741220 1.221610 0.035082
v -1.730570 1.095010 0.003356
v 0.582559 1.573490 0.104505
v 0.587371 1.745020 0.130173
v 0.445375 1.552480 0.080742
v 0.375952 1.805990 0.067179
v 0.360644 2.033930 0.123704
v 0.056828 2.066260 0.150692
v 0.534487 1.825580 0.150179
v 0.375952 1.805990 0.067179
v 0.311168 1.603480 0.059491
v 0.587371 1.745020 0.130173
v 0.602990 1.817820 0.144131
v 0.311168 1.603480 0.059491
v 0.445375 1.552480 0.080742
v 0.587371 1.745020 0.130173
v 0.356417 1.598150 -0.022015
v 0.534487 1.825580 0.150179
v 0.531892 1.902500 0.146200
v 0.375952 1.805990 0.067179
v 0.534487 1.825580 0.150179
v 0.311168 1.603480 0.059491
v 0.602990 1.817820 0.144131
v 0.582559 1.573490 0.104505
v 0.445375 1.552480 0.080742
v 0.531494 1.470730 0.060867
v -0.036078 1.713610 -0.004631
v 0.056828 2.066260 0.150692
v -0.047674 1.878830 0.120776
v -0.047674 1.878830 0.120776
v -0.177638 2.067810 0.138129
v -0.187161 1.962660 0.093818
v 0.056828 2.066260 0.150692
v -0.036078 1.713610 -0.004631
v 0.079774 1.817830 -0.000353
v 0.375952 1.805990 0.067179
v 0.531892 1.902500 0.146200
v 0.360644 2.033930 0.123704
v 0.269614 1.649460 -0.005833
v 0.225409 1.877130 0.061973
v 0.079774 1.817830 -0.000353
v 0.375952 1.805990 0.067179
v 0.582559 1.573490 0.104505
v 0.531494 1.470730 0.060867
v 0.631596 1.418710 0.143249
v -1.085602 1.689030 0.033578
v -1.246931 1.759560 0.098108
v -1.269182 1.660470 0.015012
v -1.124917 1.833630 0.121358
v 0.079774 1.817830 -0.000353
v 0.225409 1.877130 0.061973
v 0.056828 2.066260 0.150692
v -0.177638 2.067810 0.138129
v -0.249778 1.910500 0.002862
v -0.376858 1.895180 -0.018435
v 0.531494 1.470730 0.060867
v 0.445375 1.552480 0.080742
v 0.411006 1.472070 -0.006019
v -1.124917 1.833630 0.121358
v -1.091754 1.765740 0.062257
v -0.889336 1.899960 0.136355
v -0.531924 2.005670 0.120296
v -0.492987 1.869930 0.011827
v -0.376858 1.895180 -0.018435
v -1.730570 1.095010 0.003356
v -1.741220 1.221610 0.035082
v -1.821730 0.963541 0.015517
v -0.700706 1.835800 0.012949
v -0.492987 1.869930 0.011827
v -0.531924 2.005670 0.120296
v -0.889336 1.899960 0.136355
v -1.091754 1.765740 0.062257
v -1.085602 1.689030 0.033578
v -0.903782 1.798350 -0.069275
v -1.538940 1.432810 0.079372
v -1.635160 1.419410 0.114983
v -1.741220 1.221610 0.035082
v -1.538940 1.432810 0.079372
v -1.530500 1.513490 0.128038
v -1.635160 1.419410 0.114983
v 0.375952 1.805990 0.067179
v 0.056828 2.066260 0.150692
v 0.225409 1.877130 0.061973
v -1.403570 1.674870 0.101939
v -1.269182 1.660470 0.015012
v -1.246931 1.759560 0.098108
v -1.292742 1.563810 -0.010330
v -1.530500 1.513490 0.128038
v -1.372200 1.525320 0.003314
v -1.403570 1.674870 0.101939
v -1.292742 1.563810 -0.010330
v -1.372200 1.525320 0.003314
v -1.530500 1.513490 0.128038
v -1.454250 1.420810 -0.002790
v -1.538940 1.432810 0.079372
v -1.454250 1.420810 -0.002790
v -1.530500 1.513490 0.128038
v -1.722340 1.396320 -0.007888
v -1.774710 1.172950 -0.049173
v -1.821680 1.138200 0.020476
v -1.642060 1.529960 -0.008602
v -1.722340 1.396320 -0.007888
v -1.635160 1.419410 0.114983
v -1.722340 1.396320 -0.007888
v -1.642060 1.529960 -0.008602
v -1.614650 1.441900 -0.134332
v -1.722340 1.396320 -0.007888
v -1.741220 1.221610 0.035082
v -1.635160 1.419410 0.114983
v -1.821680 1.138200 0.020476
v -1.774710 1.172950 -0.049173
v -1.821730 0.963541 0.015517
v -1.555690 1.589940 -0.099883
v -1.642060 1.529960 -0.008602
v -1.612180 1.645220 0.012556
v -1.614650 1.441900 -0.134332
v -1.719130 1.240850 -0.068556
v -1.722340 1.396320 -0.007888
v -0.982830 2.096450 -0.022853
v -1.116165 1.849500 -0.136686
v -1.044407 2.027440 0.007173
v -1.642060 1.529960 -0.008602
v -1.635160 1.419410 0.114983
v -1.530500 1.513490 0.128038
v -1.479660 1.668690 -0.066713
v -1.546960 1.651010 0.010974
v -1.519650 1.721840 0.006772
v -1.180799 1.978140 0.007426
v -1.270910 1.846240 -0.012628
v -1.246931 1.759560 0.098108
v -1.555690 1.589940 -0.099883
v -1.555630 1.459080 -0.124343
v -1.642060 1.529960 -0.008602
v -1.612180 1.645220 0.012556
v -1.642060 1.529960 -0.008602
v -1.530500 1.513490 0.128038
v -1.555690 1.589940 -0.099883
v -1.509710 1.525850 -0.159681
v -1.555630 1.459080 -0.124343
v 0.311168 1.603480 0.059491
v 0.375952 1.805990 0.067179
v 0.269614 1.649460 -0.005833
v 0.308355 1.595330 -0.063057
v 0.269614 1.649460 -0.005833
v 0.384706 1.877120 -0.079880
v -0.047674 1.878830 0.120776
v -0.092679 1.839500 -0.005519
v -0.036078 1.713610 -0.004631
v -0.177638 2.067810 0.138129
v -0.249778 1.910500 0.002862
v -0.187161 1.962660 0.093818
v 0.411006 1.472070 -0.006019
v 0.445375 1.552480 0.080742
v 0.356417 1.598150 -0.022015
v 0.384706 1.877120 -0.079880
v 0.357504 2.008680 -0.156034
v 0.468614 1.812050 -0.161225
v 0.356417 1.598150 -0.022015
v 0.308355 1.595330 -0.063057
v 0.468614 1.812050 -0.161225
v 0.356417 1.598150 -0.022015
v 0.587371 1.745020 0.130173
v 0.311168 1.603480 0.059491
v 0.478021 1.415890 -0.036795
v 0.531494 1.470730 0.060867
v 0.411006 1.472070 -0.006019
v -0.092679 1.839500 -0.005519
v -0.187161 1.962660 0.093818
v -0.249778 1.910500 0.002862
v -1.193292 1.639200 -0.066796
v -1.269182 1.660470 0.015012
v -1.370470 1.636110 -0.073253
v -0.889336 1.899960 0.136355
v -1.091754 1.765740 0.062257
v -0.700706 1.835800 0.012949
v -0.531924 2.005670 0.120296
v -0.376858 1.895180 -0.018435
v -0.177638 2.067810 0.138129
v -0.047674 1.878830 0.120776
v -0.187161 1.962660 0.093818
v -0.092679 1.839500 -0.005519
v 0.356417 1.598150 -0.022015
v 0.269614 1.649460 -0.005833
v 0.308355 1.595330 -0.063057
v -1.085602 1.689030 0.033578
v -1.269182 1.660470 0.015012
v -1.193292 1.639200 -0.066796
v -1.292742 1.563810 -0.010330
v -1.372200 1.525320 0.003314
v -1.451870 1.581850 -0.124104
v 0.356417 1.598150 -0.022015
v 0.311168 1.603480 0.059491
v 0.269614 1.649460 -0.005833
v -0.650821 1.914930 -0.108304
v -0.492987 1.869930 0.011827
v -0.700706 1.835800 0.012949
v -0.886143 1.879810 -0.159990
v -0.671583 2.005110 -0.148979
v -0.903782 1.798350 -0.069275
v -1.454250 1.420810 -0.002790
v -1.555630 1.459080 -0.124343
v -1.509710 1.525850 -0.159681
v -1.454250 1.420810 -0.002790
v -1.538940 1.432810 0.079372
v -1.611560 1.295540 -0.010902
v -0.650821 1.914930 -0.108304
v -0.700706 1.835800 0.012949
v -0.903782 1.798350 -0.069275
v -0.903782 1.798350 -0.069275
v -0.700706 1.835800 0.012949
v -1.091754 1.765740 0.062257
v -1.193292 1.639200 -0.066796
v -0.903782 1.798350 -0.069275
v -1.085602 1.689030 0.033578
v -0.886143 1.879810 -0.159990
v -1.611560 1.295540 -0.010902
v -1.774710 1.172950 -0.049173
v -1.719130 1.240850 -0.068556
v -1.368740 1.696480 -0.122216
v -1.159490 1.880960 -0.084698
v -1.116165 1.849500 -0.136686
v -1.159490 1.880960 -0.084698
v -1.270910 1.846240 -0.012628
v -1.180799 1.978140 0.007426
v -1.519650 1.721840 0.006772
v -1.368740 1.696480 -0.122216
v -1.479660 1.668690 -0.066713
v -1.719130 1.240850 -0.068556
v -1.774710 1.172950 -0.049173
v -1.722340 1.396320 -0.007888
v -1.159490 1.880960 -0.084698
v -1.044407 2.027440 0.007173
v -1.116165 1.849500 -0.136686
v -1.368740 1.696480 -0.122216
v -1.451870 1.581850 -0.124104
v -1.479660 1.668690 -0.066713
v -1.044407 2.027440 0.007173
v -1.159490 1.880960 -0.084698
v -1.180799 1.978140 0.007426
v -0.808530 2.015830 -0.087463
v -0.671583 2.005110 -0.148979
v -0.886143 1.879810 -0.159990
v -0.488182 2.199850 -0.005269
v -0.354574 2.255060 -0.005207
v -0.611479 2.073230 -0.069391
v 0.285436 2.240790 -0.015888
v 0.357504 2.008680 -0.156034
v 0.135779 2.180760 -0.105959
v 0.650471 1.579650 -0.057842
v 0.637607 1.487130 -0.151711
v 0.544419 1.565600 -0.150964
v -0.808530 2.015830 -0.087463
v -0.871124 2.098300 -0.007909
v -0.611479 2.073230 -0.069391
v -0.180736 2.167590 -0.036952
v -0.106248 2.089230 -0.139279
v -0.266580 2.048720 -0.104142
v -0.671583 2.005110 -0.148979
v -0.611479 2.073230 -0.069391
v -0.524916 2.007130 -0.118798
v -0.212227 2.233440 0.008612
v -0.180736 2.167590 -0.036952
v -0.354574 2.255060 -0.005207
v -0.871124 2.098300 -0.007909
v -0.488182 2.199850 -0.005269
v -0.611479 2.073230 -0.069391
v -0.180736 2.167590 -0.036952
v -0.042455 2.154950 -0.122901
v -0.106248 2.089230 -0.139279
v -0.886143 1.879810 -0.159990
v -1.116165 1.849500 -0.136686
v -0.982830 2.096450 -0.022853
v -0.045564 2.261860 0.005583
v -0.180736 2.167590 -0.036952
v -0.212227 2.233440 0.008612
v -0.808530 2.015830 -0.087463
v -0.886143 1.879810 -0.159990
v -0.982830 2.096450 -0.022853
v 0.637607 1.487130 -0.151711
v 0.650471 1.579650 -0.057842
v 0.933880 1.548140 -0.000447
v -0.354574 2.255060 -0.005207
v -0.524916 2.007130 -0.118798
v -0.611479 2.073230 -0.069391
v -1.555690 1.589940 -0.099883
v -1.451870 1.581850 -0.124104
v -1.509710 1.525850 -0.159681
v -1.479660 1.668690 -0.066713
v -0.354574 2.255060 -0.005207
v -0.406405 2.026870 -0.118562
v -0.524916 2.007130 -0.118798
v -0.354574 2.255060 -0.005207
v -0.180736 2.167590 -0.036952
v -0.266580 2.048720 -0.104142
v -0.354574 2.255060 -0.005207
v -0.266580 2.048720 -0.104142
v -0.406405 2.026870 -0.118562
v 0.426688 2.097660 -0.117173
v 0.357504 2.008680 -0.156034
v 0.285436 2.240790 -0.015888
v -0.045564 2.261860 0.005583
v 0.217538 2.406490 -0.006422
v 0.135779 2.180760 -0.105959
v 0.426688 2.097660 -0.117173
v 0.285436 2.240790 -0.015888
v 0.559755 2.333010 -0.012015
v 0.563978 1.960000 -0.069024
v 0.426688 2.097660 -0.117173
v 0.559755 2.333010 -0.012015
v 0.559755 2.333010 -0.012015
v 0.612640 2.140710 -0.016020
v 0.563978 1.960000 -0.069024
v 0.898720 1.821280 -0.009081
v 1.216530 1.684400 -0.004211
v 0.607885 1.667330 -0.130930
v 0.285436 2.240790 -0.015888
v 0.135779 2.180760 -0.105959
v 0.217538 2.406490 -0.006422
v 0.468614 1.812050 -0.161225
v 0.614648 1.913740 -0.111629
v 0.612546 1.803580 -0.140391
v 0.468614 1.812050 -0.161225
v 0.357504 2.008680 -0.156034
v 0.614648 1.913740 -0.111629
v 0.426688 2.097660 -0.117173
v 0.772860 1.905750 -0.097725
v 0.612546 1.803580 -0.140391
v 0.614648 1.913740 -0.111629
v 0.650471 1.579650 -0.057842
v 0.544419 1.565600 -0.150964
v 0.607885 1.667330 -0.130930
v 0.607885 1.667330 -0.130930
v 0.612546 1.803580 -0.140391
v 0.898720 1.821280 -0.009081
v 0.772860 1.905750 -0.097725
v 0.614648 1.913740 -0.111629
v 0.853630 2.256350 -0.015684
v 0.773910 1.327110 -0.017920
v 0.637607 1.487130 -0.151711
v 0.933880 1.548140 -0.000447
v 0.614648 1.913740 -0.111629
v 0.612640 2.140710 -0.016020
v 0.853630 2.256350 -0.015684
v -0.042455 2.154950 -0.122901
v 0.135779 2.180760 -0.105959
v 0.015028 1.995190 -0.134261
v 0.357504 2.008680 -0.156034
v 0.015028 1.995190 -0.134261
v -0.106248 2.089230 -0.139279
v -0.042455 2.154950 -0.122901
v 0.898720 1.821280 -0.009081
v 0.612546 1.803580 -0.140391
v 0.772860 1.905750 -0.097725
v 0.612640 2.140710 -0.016020
v 0.614648 1.913740 -0.111629
v 0.563978 1.960000 -0.069024
v 0.898720 1.821280 -0.009081
v 0.772860 1.905750 -0.097725
v 1.136710 2.026500 0.000062
v 0.544419 1.565600 -0.150964
v 0.356417 1.598150 -0.022015
v 0.607885 1.667330 -0.130930
v 0.933880 1.548140 -0.000447
v 0.650471 1.579650 -0.057842
v 1.216530 1.684400 -0.004211
v -1.116165 1.849500 -0.136686
v -0.886143 1.879810 -0.159990
v -1.193292 1.639200 -0.066796
v -0.106248 2.089230 -0.139279
v 0.015028 1.995190 -0.134261
v -0.266580 2.048720 -0.104142
v 0.650471 1.579650 -0.057842
v 0.607885 1.667330 -0.130930
v 1.216530 1.684400 -0.004211
v 0.021753 1.906110 -0.058550
v -0.036078 1.713610 -0.004631
v -0.092679 1.839500 -0.005519
v 0.468614 1.812050 -0.161225
v 0.308355 1.595330 -0.063057
v 0.384706 1.877120 -0.079880
v 0.079774 1.817830 -0.000353
v -0.036078 1.713610 -0.004631
v 0.021753 1.906110 -0.058550
v 0.269614 1.649460 -0.005833
v 0.228776 1.919820 -0.084891
v 0.384706 1.877120 -0.079880
v 0.607885 1.667330 -0.130930
v 0.356417 1.598150 -0.022015
v 0.612546 1.803580 -0.140391
v -0.671583 2.005110 -0.148979
v -0.650821 1.914930 -0.108304
v -0.903782 1.798350 -0.069275
v 0.356417 1.598150 -0.022015
v 0.468614 1.812050 -0.161225
v 0.612546 1.803580 -0.140391
v -0.524916 2.007130 -0.118798
v -0.650821 1.914930 -0.108304
v -0.671583 2.005110 -0.148979
v 0.228776 1.919820 -0.084891
v 0.269614 1.649460 -0.005833
v 0.079774 1.817830 -0.000353
v -1.193292 1.639200 -0.066796
v -1.368740 1.696480 -0.122216
v -1.116165 1.849500 -0.136686
v 0.411006 1.472070 -0.006019
v 0.637607 1.487130 -0.151711
v 0.478021 1.415890 -0.036795
v -1.370470 1.636110 -0.073253
v -1.368740 1.696480 -0.122216
v -1.193292 1.639200 -0.066796
v -0.249778 1.910500 0.002862
v 0.015028 1.995190 -0.134261
v -0.092679 1.839500 -0.005519
v -1.555630 1.459080 -0.124343
v -1.719130 1.240850 -0.068556
v -1.614650 1.441900 -0.134332
v 0.384706 1.877120 -0.079880
v 0.228776 1.919820 -0.084891
v 0.357504 2.008680 -0.156034
v 0.228776 1.919820 -0.084891
v 0.021753 1.906110 -0.058550
v 0.357504 2.008680 -0.156034
v 0.411006 1.472070 -0.006019
v 0.356417 1.598150 -0.022015
v 0.544419 1.565600 -0.150964
v 0.228776 1.919820 -0.084891
v 0.079774 1.817830 -0.000353
v 0.021753 1.906110 -0.058550
v 0.411006 1.472070 -0.006019
v 0.544419 1.565600 -0.150964
v 0.637607 1.487130 -0.151711
v -0.376858 1.895180 -0.018435
v -0.492987 1.869930 0.011827
v -0.406405 2.026870 -0.118562
v -0.266580 2.048720 -0.104142
v -0.376858 1.895180 -0.018435
v -0.406405 2.026870 -0.118562
v 0.021753 1.906110 -0.058550
v -0.092679 1.839500 -0.005519
v 0.015028 1.995190 -0.134261
v -0.266580 2.048720 -0.104142
v -0.249778 1.910500 0.002862
v -0.376858 1.895180 -0.018435
v 0.021753 1.906110 -0.058550
v 0.015028 1.995190 -0.134261
v 0.357504 2.008680 -0.156034
v 0.015028 1.995190 -0.134261
v -0.249778 1.910500 0.002862
v -0.266580 2.048720 -0.104142
v -1.774710 1.172950 -0.049173
v -1.730570 1.095010 0.003356
v -1.821730 0.963541 0.015517
v -0.524916 2.007130 -0.118798
v -0.406405 2.026870 -0.118562
v -0.492987 1.869930 0.011827
v -1.292742 1.563810 -0.010330
v -1.451870 1.581850 -0.124104
v -1.370470 1.636110 -0.073253
v -0.524916 2.007130 -0.118798
v -0.492987 1.869930 0.011827
v -0.650821 1.914930 -0.108304
v -1.269182 1.660470 0.015012
v -1.292742 1.563810 -0.010330
v -1.370470 1.636110 -0.073253
v -1.611560 1.295540 -0.010902
v -1.730570 1.095010 0.003356
v -1.774710 1.172950 -0.049173
v -1.454250 1.420810 -0.002790
v -1.611560 1.295540 -0.010902
v -1.555630 1.459080 -0.124343
vn 0.9444 0.2439 -0.2206
vn 0.9443 0.2438 -0.2211
vn 0.9577 -0.1649 -0.2357
vn 0.7637 -0.1732 0.6219
vn 0.6409 -0.4670 -0.6092
vn 0.5929 -0.5850 -0.5533
vn 0.6693 -0.4803 -0.5669
vn 0.7334 -0.4179 -0.5363
vn 0.7333 -0.4180 -0.5362
vn 0.8597 -0.5048 0.0787
vn 0.8597 -0.5048 0.0788
vn -0.5959 0.7214 -0.3528
vn 0.6980 0.7140 0.0547
vn -0.4884 0.7483 -0.4490
vn -0.4884 0.7483 -0.4489
vn -0.4884 0.7482 -0.4490
vn 0.4174 0.8112 0.4096
vn -0.4019 0.7643 0.5043
vn -0.4019 0.7643 0.5044
vn -0.4583 0.6479 -0.6084
vn -0.0000 0.9195 0.3930
vn -0.0000 0.9196 0.3929
vn -0.1892 0.8121 -0.5520
vn -0.2598 0.8423 -0.4723
vn -0.0474 0.7667 -0.6402
vn -0.2980 0.7454 0.5963
vn -0.2979 0.7454 0.5963
vn 0.1813 0.8749 0.4492
vn -0.3148 0.7240 -0.6138
vn -0.2046 0.6220 0.7558
vn 0.0787 0.7243 -0.6849
vn -0.0314 0.7843 0.6196
vn -0.0868 0.8764 -0.4737
vn -0.0869 0.8764 -0.4737
vn -0.0158 0.8895 0.4566
vn -0.0552 0.7178 -0.6941
vn -0.1339 0.7956 -0.5908
vn -0.5173 0.5173 0.6818
vn -0.4808 0.5836 0.6544
vn -0.5501 0.2594 0.7938
vn -0.5501 0.2593 0.7938
vn -0.3711 0.5685 0.7343
vn 0.4652 0.3864 0.7964
vn -0.1494 0.6291 0.7628
vn -0.2047 0.6220 0.7558
vn -0.2048 0.6219 0.7558
vn -0.1415 0.6213 0.7707
vn -0.1414 0.6213 0.7707
vn -0.2048 0.5592 0.8034
vn -0.1651 0.5741 0.8020
vn -0.1651 0.5740 0.8020
vn -0.4256 0.2599 0.8668
vn -0.4255 0.2600 0.8668
vn -0.0790 0.5529 0.8295
vn 0.0001 0.5455 0.8381
vn 0.3610 0.4233 0.8310
vn 0.6386 0.0868 0.7647
vn 0.6385 0.0867 0.7647
vn -0.1418 0.5046 0.8516
vn -0.1419 0.5046 0.8516
vn -0.3687 0.4863 0.7922
vn -0.3686 0.4863 0.7922
vn -0.0396 0.5060 0.8616
vn -0.0394 0.5058 0.8617
vn 0.1258 0.4562 0.8809
vn 0.1259 0.4562 0.8809
vn -0.1494 0.4641 0.8731
vn -0.1495 0.4641 0.8731
vn 0.1725 0.3766 0.9102
vn -0.1491 0.4171 0.8966
vn 0.1185 0.3633 0.9241
vn 0.0474 0.3791 0.9241
vn -0.1102 0.4879 0.8659
vn -0.1102 0.4880 0.8658
vn -0.1102 0.4880 0.8659
vn -0.1102 0.4881 0.8658
vn 0.3554 0.2211 0.9082
vn 0.3553 0.2211 0.9082
vn 0.3528 0.2196 0.9096
vn 0.1732 0.4337 0.8842
vn -0.0392 0.6451 0.7631
vn -0.0394 0.6451 0.7631
vn 0.4112 0.0632 0.9094
vn 0.4344 0.0395 0.8998
vn -0.2913 0.6061 0.7401
vn 0.4503 0.0158 0.8927
vn 0.4153 0.0392 0.9089
vn 0.4152 0.0392 0.9089
vn 0.2920 0.1815 0.9390
vn 0.3848 0.0864 0.9190
vn 0.4557 0.1336 0.8800
vn -0.0000 0.3304 0.9439
vn -0.0549 0.1807 0.9820
vn -0.4560 -0.2909 0.8411
vn 0.5435 -0.2678 0.7955
vn -0.0000 0.1490 0.9888
vn -0.1491 -0.0313 0.9883
vn 0.3848 -0.3455 0.8559
vn 0.2211 -0.1501 0.9636
vn 0.2669 -0.2042 0.9418
vn 0.2669 -0.2041 0.9419
vn 0.1648 -0.1019 0.9810
vn 0.1730 -0.3303 0.9279
vn -0.0550 -0.1258 0.9905
vn 0.3944 -0.4968 0.7731
vn 0.3944 -0.4969 0.7730
vn 0.0395 -0.2368 0.9708
vn -0.1499 -0.1420 0.9784
vn 0.0628 -0.2365 0.9696
vn -0.4720 0.1178 0.8737
vn -0.1727 -0.1492 0.9736
vn -0.6510 0.2982 0.6981
vn -0.6510 0.2981 0.6981
vn -0.4658 0.0315 0.8843
vn -0.4659 0.0315 0.8843
vn 0.0315 -0.4088 0.9121
vn -0.1100 -0.3378 0.9348
vn 0.6156 -0.4498 0.6471
vn -0.3707 -0.3313 0.8676
vn 0.3786 -0.4575 0.8046
vn 0.3786 -0.4574 0.8046
vn -0.3132 -0.2505 0.9161
vn -0.2209 -0.3155 0.9229
vn -0.2208 -0.3155 0.9229
vn -0.6370 -0.0078 0.7708
vn 0.0788 -0.5674 0.8196
vn 0.0788 -0.5675 0.8196
vn 0.0788 -0.5673 0.8197
vn -0.1412 -0.5254 0.8391
vn -0.2681 -0.5525 0.7892
vn -0.3947 -0.5920 0.7026
vn 0.1259 -0.6141 0.7791
vn 0.3231 -0.5358 0.7801
vn 0.3944 -0.1893 0.8992
vn 0.1813 -0.6465 0.7411
vn 0.1812 -0.6464 0.7412
vn 0.5843 -0.2448 0.7738
vn 0.3621 -0.5116 0.7792
vn 0.3620 -0.5116 0.7792
vn -0.3150 -0.6222 0.7167
vn 0.4247 -0.5112 0.7472
vn 0.4247 -0.5113 0.7472
vn 0.4247 -0.5111 0.7472
vn 0.5207 -0.3944 0.7572
vn 0.5206 -0.3944 0.7573
vn 0.5206 -0.3944 0.7572
vn 0.5205 -0.3944 0.7573
vn 0.5669 -0.4803 0.6693
vn 0.5818 -0.4638 0.6681
vn -0.8563 0.2828 -0.4321
vn -0.8563 0.2828 -0.4322
vn -0.7636 0.4566 0.4566
vn -0.7546 0.4480 -0.4795
vn -0.8139 0.2212 0.5373
vn -0.8343 0.0157 -0.5511
vn -0.8343 0.0157 -0.5510
vn -0.7837 0.3055 -0.5408
vn -0.7837 0.3056 -0.5408
vn -0.7789 0.2125 -0.5900
vn -0.7708 0.5584 -0.3067
vn -0.5929 0.5850 0.5534
vn -0.7570 0.2603 -0.5993
vn -0.7476 0.4329 0.5036
vn -0.7476 0.4330 0.5035
vn -0.7591 0.1193 -0.6399
vn -0.7652 0.0789 0.6390
vn -0.7170 0.1261 -0.6855
vn -0.7475 0.2124 0.6294
vn -0.7393 0.1652 -0.6528
vn -0.8341 -0.3699 0.4092
vn -0.2683 -0.5525 0.7892
vn -0.2683 -0.5524 0.7892
vn -0.2682 -0.5526 0.7891
vn -0.7857 -0.2672 0.5579
vn -0.7779 -0.4243 -0.4635
vn -0.7779 -0.4243 -0.4636
vn 0.5201 -0.6383 -0.5674
vn 0.3862 -0.8827 0.2679
vn -0.3370 -0.7290 0.5958
vn -0.2990 -0.7240 0.6217
vn 0.0078 -0.9658 0.2591
vn 0.2120 -0.6988 0.6832
vn 0.0943 -0.7234 0.6840
vn -0.5275 -0.7400 0.4173
vn -0.3710 -0.7892 0.4894
vn 0.1105 -0.9312 0.3472
vn 0.1105 -0.9313 0.3472
vn 0.2909 -0.7936 -0.5344
vn 0.2908 -0.7936 -0.5344
vn -0.5263 -0.8170 -0.2357
vn 0.1333 -0.8546 -0.5018
vn 0.4408 -0.7085 -0.5511
vn 0.4728 -0.6463 -0.5990
vn 0.4812 -0.6468 0.5916
vn 0.4813 -0.6468 0.5916
vn 0.3226 -0.8497 -0.4170
vn 0.1809 -0.9835 0.0079
vn 0.4506 -0.8222 -0.3477
vn 0.4506 -0.8221 -0.3480
vn 0.4505 -0.8221 -0.3481
vn 0.5907 -0.6300 -0.5041
vn -0.4582 0.6478 -0.6086
vn -0.4583 0.6478 -0.6085
vn -0.5738 0.4952 -0.6524
vn -0.4802 0.5669 -0.6693
vn -0.6004 0.2765 -0.7504
vn -0.3157 0.6709 -0.6709
vn -0.4865 0.3685 -0.7922
vn -0.2352 0.6428 -0.7290
vn -0.2987 0.5739 -0.7625
vn -0.2987 0.5740 -0.7625
vn -0.2596 0.6213 -0.7393
vn 0.2509 0.5567 -0.7919
vn 0.4872 0.5894 -0.6444
vn -0.1180 0.6450 -0.7551
vn -0.3152 0.6304 -0.7094
vn -0.3152 0.6305 -0.7093
vn 0.1339 0.7007 -0.7008
vn 0.1341 0.7006 -0.7008
vn 0.1654 0.6142 -0.7716
vn -0.1420 0.5527 -0.8212
vn -0.1419 0.5527 -0.8212
vn -0.3934 0.5666 -0.7240
vn -0.1493 0.4795 -0.8647
vn -0.1494 0.4795 -0.8647
vn -0.1024 0.5279 -0.8431
vn -0.0867 0.5044 -0.8591
vn -0.0866 0.5044 -0.8591
vn 0.2207 0.6778 -0.7014
vn -0.1262 0.4813 -0.8675
vn -0.1502 0.5611 -0.8140
vn -0.1501 0.5611 -0.8140
vn -0.0707 0.4555 -0.8874
vn 0.0629 0.4557 -0.8879
vn 0.0630 0.4557 -0.8879
vn 0.0237 0.4404 -0.8975
vn -0.1339 0.4806 -0.8666
vn -0.1339 0.4807 -0.8666
vn -0.2997 0.4733 -0.8283
vn -0.1499 0.4734 -0.8680
vn 0.4490 0.1419 -0.8822
vn 0.4490 0.1418 -0.8822
vn 0.4427 0.1423 -0.8853
vn 0.4427 0.1422 -0.8853
vn 0.1815 0.3788 -0.9075
vn 0.4324 0.2279 -0.8724
vn 0.4323 0.2279 -0.8724
vn 0.1494 0.2436 -0.9583
vn 0.2292 0.1818 -0.9563
vn 0.2292 0.1818 -0.9562
vn 0.0947 0.2526 -0.9629
vn 0.6532 -0.2676 -0.7083
vn 0.4173 -0.0787 -0.9054
vn 0.0943 0.2043 -0.9743
vn 0.0944 0.2043 -0.9743
vn 0.4816 -0.2842 -0.8290
vn 0.4816 -0.2841 -0.8290
vn -0.1815 0.3788 -0.9075
vn -0.0235 0.1656 -0.9859
vn -0.0237 0.1656 -0.9859
vn 0.1336 0.1180 -0.9840
vn 0.4154 -0.2900 -0.8622
vn 0.4153 -0.2900 -0.8622
vn -0.3930 0.3537 -0.8488
vn 0.3545 -0.3703 -0.8586
vn -0.4570 0.4413 -0.7723
vn 0.1497 -0.3384 -0.9290
vn -0.0551 -0.2992 -0.9526
vn -0.1492 -0.2434 -0.9584
vn 0.1821 -0.5759 -0.7970
vn 0.1816 -0.5760 -0.7970
vn -0.3381 -0.1573 -0.9279
vn -0.6397 0.1264 -0.7582
vn -0.6397 0.1264 -0.7581
vn 0.3458 -0.3458 -0.8723
vn -0.0471 -0.2827 -0.9580
vn -0.3859 -0.0472 -0.9213
vn -0.3859 -0.0474 -0.9213
vn 0.0473 -0.4020 -0.9144
vn 0.0868 -0.5761 -0.8128
vn 0.1883 -0.3688 -0.9102
vn -0.2987 -0.3065 -0.9038
vn 0.1731 -0.3698 -0.9129
vn -0.5270 -0.1651 -0.8337
vn 0.0395 -0.6319 -0.7741
vn -0.2676 -0.4957 -0.8262
vn 0.2675 -0.4245 -0.8650
vn 0.2674 -0.4246 -0.8650
vn -0.1104 -0.5125 -0.8516
vn -0.0708 -0.5588 -0.8263
vn -0.5735 -0.3378 -0.7463
vn -0.0630 -0.5823 -0.8105
vn -0.4426 -0.5137 -0.7350
vn -0.0710 -0.6136 -0.7864
vn 0.1728 -0.5732 -0.8010
vn 0.0236 -0.6454 -0.7635
vn 0.2046 -0.5823 -0.7868
vn -0.0236 -0.6455 -0.7634
vn -0.1970 -0.6144 -0.7640
vn 0.3930 -0.3536 -0.8488
vn 0.3930 -0.3537 -0.8488
vn 0.1104 -0.6705 -0.7336
vn 0.5757 -0.0946 -0.8122
vn 0.3702 -0.5908 -0.7168
vn 0.6535 0.0394 -0.7559
vn 0.4391 -0.3215 -0.8389
vn 0.5125 -0.5992 -0.6150
vn 0.5125 -0.5993 -0.6150
vt 49.986900 -4.803310
vt 49.982101 -4.822660
vt 49.991299 -4.834680
vt 50.001999 -4.717960
vt 49.999100 -4.748700
vt 50.012199 -4.761780
vt 49.984798 -4.770800
vt 49.995800 -4.788870
vt 49.992199 -4.779280
vt 49.999599 -4.809330
vt 50.000301 -4.822400
vt 50.015499 -4.802270
vt 50.015499 -4.817610
vt 50.001400 -4.838060
vt 50.008598 -4.844890
vt 50.015301 -4.787940
vt 50.009201 -4.795490
vt 50.020000 -4.809270
vt 49.990101 -4.820900
vt 49.999599 -4.863120
vt 50.147099 -5.008340
vt 50.156601 -5.012490
vt 50.155499 -4.998630
vt 49.885300 -5.013950
vt 49.908798 -5.014650
vt 49.891701 -5.008630
vt 50.141998 -5.001930
vt 50.120998 -5.001580
vt 50.107101 -5.010590
vt 50.135700 -4.995480
vt 49.917099 -4.984540
vt 49.932598 -4.992180
vt 49.952099 -4.987650
vt 50.137600 -4.987260
vt 50.118000 -4.987740
vt 50.133301 -5.015280
vt 50.047001 -4.995660
vt 50.071098 -5.000990
vt 50.050999 -4.985680
vt 50.038601 -5.008670
vt 50.046101 -5.018620
vt 50.063202 -5.010930
vt 50.152100 -4.999150
vt 49.945202 -5.013250
vt 49.967499 -5.015360
vt 49.967899 -4.999300
vt 49.974899 -4.983940
vt 49.990799 -4.990920
vt 50.028702 -4.984960
vt 49.984798 -5.004620
vt 50.084999 -5.002860
vt 50.163700 -4.998430
vt 49.865601 -5.012220
vt 49.860100 -4.999140
vt 49.820099 -4.999990
vt 50.156601 -5.015540
vt 50.164001 -5.016790
vt 50.167400 -5.001080
vt 49.862400 -4.790640
vt 49.844501 -4.793620
vt 49.846500 -4.810810
vt 49.907299 -4.746570
vt 49.882000 -4.780050
vt 49.897202 -4.770800
vt 49.847900 -4.784770
vt 49.928902 -4.737710
vt 49.926701 -4.762500
vt 49.949001 -4.744310
vt 50.114399 -4.732410
vt 50.098099 -4.725360
vt 50.104301 -4.762190
vt 50.015598 -4.741520
vt 50.009201 -4.733090
vt 49.971298 -4.749290
vt 50.064999 -4.699190
vt 50.032101 -4.717270
vt 50.047901 -4.726220
vt 49.975800 -4.738240
vt 49.952999 -4.740040
vt 49.915001 -4.737940
vt 49.822498 -4.825460
vt 49.810101 -4.857730
vt 49.820202 -4.847300
vt 50.011299 -4.720820
vt 49.993500 -4.718120
vt 50.073502 -4.719900
vt 50.067402 -4.733980
vt 50.113201 -4.772770
vt 50.122700 -4.776180
vt 50.119701 -4.761610
vt 49.976799 -4.725020
vt 50.025101 -4.732360
vt 50.082901 -4.745760
vt 50.104599 -4.771800
vt 49.890202 -4.752730
vt 50.044899 -4.741720
vt 50.107800 -4.708370
vt 50.128899 -4.788770
vt 50.111198 -4.781870
vt 50.150200 -4.772340
vt 50.189899 -4.789450
vt 49.836300 -4.794350
vt 50.139900 -4.748700
vt 50.144501 -4.717960
vt 50.154598 -4.806480
vt 50.110600 -4.803310
vt 50.129101 -4.812460
vt 50.179901 -4.746690
vt 49.864300 -4.774580
vt 49.858002 -4.783180
vt 49.810101 -4.879560
vt 50.134602 -4.834110
vt 50.117699 -4.834680
vt 50.031898 -4.765150
vt 49.845501 -4.820900
vt 49.821499 -4.863120
vt 50.093498 -4.805940
vt 50.084801 -4.774250
vt 50.076698 -4.799570
vt 50.082401 -4.800230
vt 50.104301 -4.816160
vt 50.033298 -4.785800
vt 50.014400 -4.754670
vt 50.047798 -4.772770
vt 50.071499 -4.793820
vt 50.066002 -4.765360
vt 50.116798 -4.822660
vt 49.902100 -4.788870
vt 49.879200 -4.792440
vt 50.006599 -4.761190
vt 49.990700 -4.763100
vt 50.089199 -4.815990
vt 49.901402 -4.779280
vt 49.976200 -4.766260
vt 49.950199 -4.770520
vt 49.924900 -4.775210
vt 49.833401 -4.822570
vt 49.876202 -4.804520
vt 49.866299 -4.809330
vt 49.855999 -4.822400
vt 49.999001 -4.825460
vt 49.993900 -4.853380
vt 50.002602 -4.857730
vt 49.998901 -4.808760
vt 50.014400 -4.822570
vt 49.983200 -4.819760
vt 50.004398 -4.847300
vt 50.001900 -4.879560
vt 49.987499 -4.801260
vt 50.001598 -4.794350
vt 49.991402 -4.844890
vt 49.997101 -4.737940
vt 49.982899 -4.768810
vt 50.000900 -4.746570
vt 50.015999 -4.810810
vt 49.991699 -4.791410
vt 50.001400 -4.793620
vt 50.000801 -4.784770
vt 50.000900 -4.752730
vt 49.998402 -4.769220
vt 50.012299 -4.780050
vt 49.984501 -4.817610
vt 49.980000 -4.809270
vt 50.007401 -4.799570
vt 50.008400 -4.774250
vt 49.999298 -4.793820
vt 49.992100 -4.800580
vt 49.990002 -4.765360
vt 50.015099 -4.765150
vt 49.999298 -4.770060
vt 49.999401 -4.785800
vt 50.017300 -4.741520
vt 50.000401 -4.761190
vt 50.011700 -4.754670
vt 49.999199 -4.815990
vt 50.010101 -4.805940
vt 49.997200 -4.800230
vt 49.980499 -4.748910
vt 49.979801 -4.773490
vt 50.082401 -5.002750
vt 50.076401 -5.007880
vt 50.096401 -5.020150
vt 50.111198 -4.983730
vt 50.076698 -4.992560
vt 50.097599 -5.004600
vt 50.104301 -4.992390
vt 50.089199 -5.000750
vt 50.026199 -5.000690
vt 50.014400 -4.988270
vt 50.006599 -4.999640
vt 49.888699 -5.008350
vt 49.879200 -4.998120
vt 49.866501 -5.009160
vt 49.926701 -4.982960
vt 49.901402 -4.992220
vt 49.950199 -4.998380
vt 49.971298 -4.984960
vt 49.990700 -5.002300
vt 50.015598 -4.982730
vt 50.031898 -4.984900
vt 50.071499 -5.000730
vt 49.902100 -4.995800
vt 49.876202 -5.001290
vt 49.866299 -4.999590
vt 49.856300 -5.015510
vt 49.956501 -5.013540
vt 49.976200 -4.998520
vt 49.927101 -5.020000
vt 49.953899 -5.018620
vt 49.924900 -5.008660
vt 49.855999 -5.000350
vt 49.843399 -5.015540
vt 49.849098 -5.019960
vt 49.845501 -4.990080
vt 49.836399 -5.001360
vt 49.816002 -5.006150
vt 49.822899 -5.008570
vt 50.133301 -4.787940
vt 50.107101 -4.764880
vt 50.101700 -4.768810
vt 50.120998 -4.769220
vt 50.109798 -4.752730
vt 50.152100 -4.784770
vt 50.147099 -4.791410
vt 50.177101 -4.844890
vt 50.183998 -4.853380
vt 50.177502 -4.825460
vt 50.092701 -4.746570
vt 50.143700 -4.802270
vt 50.063202 -4.748020
vt 50.046101 -4.749360
vt 50.072899 -4.765020
vt 50.023201 -4.725020
vt 50.006500 -4.718120
vt 50.038601 -4.740850
vt 49.926498 -4.719900
vt 49.917500 -4.748910
vt 49.945202 -4.727410
vt 49.880901 -4.802540
vt 49.882500 -4.814110
vt 49.894100 -4.804300
vt 50.071098 -4.737710
vt 49.984798 -4.729050
vt 49.975498 -4.738850
vt 49.995499 -4.743910
vt 50.027802 -4.749110
vt 49.988701 -4.720820
vt 49.967499 -4.730630
vt 50.084999 -4.737940
vt 49.967899 -4.717270
vt 49.845402 -4.806480
vt 50.156601 -4.801260
vt 50.150902 -4.809270
vt 50.013000 -4.746640
vt 49.908798 -4.737790
vt 49.935001 -4.699190
vt 49.892200 -4.708370
vt 49.891701 -4.755000
vt 49.885601 -4.732410
vt 49.849800 -4.772340
vt 49.810101 -4.789450
vt 49.886200 -4.791580
vt 49.903599 -4.773490
vt 49.885300 -4.760780
vt 49.885601 -4.774550
vt 49.865601 -4.761780
vt 49.855499 -4.717960
vt 49.865398 -4.834110
vt 49.960300 -4.750600
vt 49.820099 -4.746690
vt 49.917599 -4.800230
vt 50.111301 -4.795100
vt 49.959499 -4.761740
vt 49.966702 -4.785800
vt 49.973801 -4.770060
vt 49.923599 -4.800580
vt 49.914101 -4.765360
vt 49.952202 -4.772770
vt 49.928501 -4.793820
vt 49.933601 -4.760020
vt 50.043499 -4.760630
vt 50.075100 -4.775210
vt 49.910801 -4.815990
vt 49.902401 -4.823010
vt 50.133499 -4.795490
vt 49.993401 -4.761190
vt 50.156601 -4.817610
vt 50.164001 -4.819760
vt 50.009300 -4.763100
vt 50.023800 -4.766260
vt 50.178501 -4.863120
vt 50.189899 -4.879560
vt 50.123798 -4.804520
vt 50.120800 -4.792440
vt 50.163601 -4.838060
vt 50.144001 -4.822400
s 1
usemtl Meshpart1Mtl.002
f 1/1/1 2/2/2 3/3/2
f 4/4/3 5/5/3 6/6/3
f 7/7/4 8/8/4 9/9/4
f 10/10/5 11/11/5 12/12/5
f 13/13/6 14/14/6 15/15/6
f 16/16/7 17/17/7 18/12/7
f 19/11/8 20/18/8 21/12/9
f 22/19/10 23/20/11 24/14/11
f 25/21/12 26/22/12 27/23/12
f 28/24/13 29/25/13 30/26/13
f 31/27/14 32/28/14 33/29/15
f 32/28/14 31/27/14 34/30/16
f 35/31/17 36/32/17 37/33/17
f 38/27/18 39/34/19 40/35/19
f 42/29/20 41/36/20 43/27/20
f 44/37/21 45/38/22 46/39/22
f 47/40/23 48/41/23 49/42/23
f 50/43/24 51/27/24 52/36/24
f 53/44/25 54/45/25 55/46/25
f 56/47/26 57/46/27 58/48/27
f 59/37/28 60/39/28 61/49/28
f 62/46/29 63/45/29 64/50/29
f 67/47/30 66/33/30 65/46/30
f 68/51/31 69/38/31 70/42/31
f 71/28/32 72/30/32 73/35/32
f 74/23/33 75/22/33 76/52/34
f 77/34/35 78/27/35 79/43/35
f 80/53/36 81/54/36 82/55/36
f 83/56/37 84/57/37 85/58/37
f 86/59/38 87/60/38 88/61/38
f 89/62/39 90/63/39 91/64/39
f 92/59/40 93/65/41 94/60/41
f 95/66/42 96/67/42 97/68/42
f 98/69/43 99/70/43 100/71/43
f 101/72/44 102/73/44 103/74/44
f 104/75/45 105/76/46 106/77/46
f 107/73/47 108/78/47 109/74/47
f 110/78/48 111/79/48 112/74/48
f 113/67/49 114/62/49 115/64/49
f 116/67/50 117/80/51 118/62/51
f 117/80/51 116/67/50 119/66/51
f 120/81/52 121/82/53 122/83/53
f 123/76/54 124/84/54 125/73/54
f 126/84/55 127/85/55 128/73/55
f 129/86/56 130/77/56 131/87/56
f 132/88/57 133/89/58 134/90/58
f 135/79/59 136/91/59 137/66/59
f 138/78/60 139/91/60 140/79/60
f 141/72/61 142/92/61 143/73/62
f 144/93/63 145/70/64 146/87/64
f 147/90/65 148/94/66 149/88/65
f 150/85/67 151/78/68 152/73/67
f 151/78/68 150/85/67 153/91/68
f 154/93/69 155/71/69 156/70/69
f 157/62/70 158/95/70 159/63/70
f 160/96/71 161/93/71 162/77/71
f 163/77/72 164/92/72 165/96/72
f 166/97/73 167/86/74 168/70/75
f 169/87/76 168/70/75 167/86/74
f 170/98/77 171/89/78 172/99/78
f 173/89/79 174/98/79 175/100/79
f 176/101/80 177/100/80 178/98/80
f 179/61/81 180/60/82 181/102/81
f 182/90/83 183/71/83 184/94/83
f 185/89/84 186/103/84 187/90/84
f 188/69/85 189/71/85 190/104/85
f 191/103/86 192/104/86 193/90/86
f 194/90/87 195/104/88 196/71/87
f 197/105/89 198/106/89 199/107/89
f 200/69/90 201/97/90 202/70/90
f 203/86/91 204/75/91 205/77/91
f 206/89/92 207/108/92 208/103/92
f 209/96/93 210/92/93 211/72/93
f 212/63/94 213/109/94 214/110/94
f 215/88/95 216/99/95 217/89/95
f 218/68/96 219/67/96 220/74/96
f 221/111/97 222/83/97 223/82/97
f 224/112/98 225/105/98 226/107/98
f 227/98/99 228/99/99 229/106/99
f 230/105/100 231/98/101 232/106/100
f 233/107/102 234/106/102 235/113/102
f 236/105/103 237/101/103 238/98/103
f 239/114/104 240/96/104 241/72/104
f 242/89/105 243/100/106 244/108/106
f 245/115/107 246/83/107 247/116/107
f 248/106/108 249/99/108 250/117/108
f 251/118/109 252/93/109 253/96/109
f 254/94/110 255/118/110 256/119/110
f 257/99/111 258/88/111 259/119/111
f 260/117/112 261/99/113 262/120/113
f 263/94/114 264/71/115 265/118/114
f 266/94/116 267/119/116 268/88/116
f 269/106/117 270/117/117 271/121/117
f 272/122/118 273/96/118 274/114/118
f 275/114/119 276/72/119 277/123/119
f 278/96/120 279/122/120 280/124/121
f 281/118/122 282/71/122 283/93/122
f 284/125/123 285/126/124 286/124/123
f 285/126/124 284/125/123 287/118/123
f 288/106/125 289/121/125 290/127/125
f 291/128/126 292/63/126 293/129/127
f 292/63/126 291/128/126 294/64/128
f 295/124/129 296/126/129 297/96/129
f 299/130/130 298/72/130 300/131/130
f 301/121/131 302/117/131 303/132/131
f 304/64/132 305/133/132 306/67/132
f 307/74/133 308/134/133 309/131/133
f 310/116/134 311/83/134 312/111/134
f 313/135/135 314/134/136 315/74/135
f 315/74/135 316/67/135 313/135/135
f 317/133/137 318/128/137 319/136/137
f 320/115/138 321/137/138 322/83/138
f 323/115/139 324/61/139 325/137/139
f 326/118/140 327/96/140 328/126/140
f 329/59/141 330/129/141 331/63/142
f 330/129/141 329/59/141 332/138/143
f 333/61/144 334/139/145 335/59/146
f 336/138/147 335/59/146 334/139/145
f 337/139/148 338/61/148 339/140/148
f 340/115/149 341/140/149 342/61/149
f 343/141/150 344/142/150 345/143/151
f 346/144/152 347/141/152 348/145/152
f 349/141/153 350/144/153 351/146/153
f 352/141/154 353/147/154 354/145/154
f 355/143/155 356/142/156 357/148/156
f 358/149/157 359/144/158 360/150/157
f 361/146/159 362/151/159 363/141/159
f 364/152/160 365/153/160 366/154/160
f 367/144/161 368/145/161 369/155/161
f 370/156/162 371/157/162 372/158/162
f 373/159/163 374/160/164 375/161/163
f 376/149/165 377/162/165 378/144/165
f 379/150/166 380/144/166 381/155/166
f 382/149/167 383/163/167 384/162/167
f 385/164/168 386/165/168 387/166/168
f 388/167/169 389/166/169 390/168/169
f 391/169/170 392/170/170 393/171/170
f 394/172/171 395/173/172 396/174/173
f 397/175/174 398/176/174 399/177/174
f 400/168/175 401/178/176 402/179/176
f 403/180/177 404/181/177 405/182/177
f 406/180/178 407/183/178 408/184/178
f 409/185/179 410/186/179 411/187/179
f 412/188/180 413/189/180 414/190/180
f 415/191/181 416/192/181 417/193/181
f 418/194/182 419/195/182 420/196/182
f 421/197/183 422/198/183 423/199/183
f 424/200/184 425/189/184 426/188/184
f 427/180/185 428/201/185 429/181/185
f 430/202/186 431/192/186 432/191/187
f 433/203/188 434/204/188 435/205/189
f 436/180/190 437/184/190 438/201/190
f 439/206/191 440/207/191 441/196/191
f 442/208/192 443/209/192 444/210/192
f 445/211/193 446/212/193 447/213/193
f 448/211/194 449/214/194 450/215/195
f 451/206/196 452/196/196 453/210/196
f 454/210/197 455/196/197 456/195/197
f 457/191/198 458/210/199 459/202/198
f 457/191/198 460/208/200 458/210/199
f 461/215/201 462/216/201 463/217/201
f 464/218/202 465/219/203 466/220/203
f 467/219/204 468/221/204 469/222/204
f 470/223/205 471/218/205 472/224/205
f 473/225/206 474/226/206 475/227/206
f 476/219/207 477/228/207 478/220/207
f 479/218/208 480/229/208 481/224/208
f 482/228/209 483/219/209 484/222/209
f 485/230/210 486/231/211 487/232/210
f 488/233/212 489/234/212 490/235/212
f 491/236/213 492/237/213 493/238/213
f 494/239/214 495/240/214 496/241/214
f 497/230/215 498/242/215 499/235/215
f 500/243/216 501/244/217 502/245/217
f 503/231/218 504/235/219 505/246/219
f 506/247/220 507/243/220 508/234/220
f 509/242/221 510/233/221 511/235/222
f 512/243/223 513/248/223 514/244/223
f 515/232/224 516/220/225 517/249/225
f 518/250/226 519/243/226 520/247/226
f 521/230/227 522/232/228 523/249/228
f 524/240/229 525/239/229 526/251/229
f 527/234/230 528/246/230 529/235/230
f 530/252/231 531/229/232 532/253/232
f 531/229/232 530/252/231 533/224/231
f 534/234/233 535/254/233 536/246/233
f 537/234/234 538/243/234 539/245/235
f 540/234/236 541/245/236 542/254/236
f 543/255/237 544/237/238 545/236/238
f 546/250/239 547/256/239 548/238/239
f 549/255/240 550/236/240 551/257/240
f 552/258/241 553/255/241 554/257/242
f 555/257/243 556/259/243 557/258/244
f 558/260/245 559/261/245 560/262/245
f 561/236/246 562/238/247 563/256/246
f 564/263/248 565/264/248 566/265/248
f 567/263/249 568/237/250 569/264/249
f 568/237/250 570/255/250 569/264/249
f 571/266/251 572/265/251 573/264/251
f 574/239/252 575/241/252 576/262/252
f 577/262/253 578/265/253 579/260/253
f 580/266/254 581/264/254 582/267/255
f 583/268/256 584/240/256 585/251/257
f 586/264/258 587/259/258 588/267/258
f 589/248/259 590/238/260 591/269/260
f 590/238/260 592/237/260 591/269/260
f 593/269/261 594/244/261 595/248/261
f 596/260/262 597/265/262 598/266/263
f 599/259/264 600/264/264 601/258/264
f 602/260/265 603/266/265 604/270/265
f 605/241/266 606/271/266 607/262/266
f 608/251/267 609/239/267 610/261/267
f 611/220/268 612/232/268 613/272/268
f 614/244/269 615/269/269 616/245/269
f 617/239/270 618/262/270 619/261/271
f 620/273/272 621/274/272 622/275/272
f 623/263/273 624/276/274 625/277/273
f 626/278/275 627/274/275 628/273/275
f 629/279/276 630/280/276 631/277/276
f 632/262/277 633/271/277 634/265/278
f 635/231/279 636/281/279 637/282/279
f 638/271/280 639/263/280 640/265/280
f 641/246/281 642/281/281 643/231/281
f 644/280/282 645/279/282 646/278/282
f 647/272/283 648/218/283 649/220/283
f 650/283/284 651/240/284 652/284/284
f 653/285/285 654/218/285 655/272/285
f 656/286/286 657/269/286 658/275/286
f 659/287/287 660/225/287 661/288/288
f 662/277/289 663/280/289 664/237/289
f 665/280/290 666/273/290 667/237/290
f 668/283/291 669/271/291 670/241/291
f 671/280/292 672/278/292 673/273/292
f 674/283/293 675/241/293 676/240/293
f 677/289/294 678/290/294 679/254/294
f 680/245/295 681/289/295 682/254/295
f 683/273/296 684/275/296 685/269/296
f 686/245/297 687/286/297 688/289/297
f 689/273/298 690/269/298 691/237/298
f 692/269/299 693/286/299 694/245/299
f 695/226/300 696/291/301 697/292/300
f 698/246/302 699/254/302 700/290/302
f 701/293/303 702/229/303 703/285/303
f 704/246/304 705/290/304 706/281/304
f 707/294/305 708/293/305 709/285/305
f 710/295/306 711/291/306 712/226/306
f 713/296/307 714/295/308 715/287/307
