# Blender 5.2.0 LTS
# www.blender.org
mtllib handle.mtl
o crysta.001_Meshpart1Mtl.002
v -0.183154 -1.748240 0.079608
v -0.356030 -1.871730 0.242107
v -0.330906 -2.031490 -0.007402
v -0.247325 -1.356680 -0.081260
v -0.316618 -1.463130 -0.061341
v -0.299421 -1.383340 -0.146235
v -0.215068 -1.378060 -0.006430
v -0.316618 -1.463130 -0.061341
v -0.247325 -1.356680 -0.081260
v 0.745550 1.135360 -0.008286
v 0.685672 1.270310 -0.007531
v 0.639124 1.322570 0.069359
v 0.631596 1.418710 0.143249
v 0.639124 1.322570 0.069359
v -0.330906 -2.031490 -0.007402
v -0.356030 -1.871730 0.242107
v -0.465755 -2.406490 0.002636
v 0.585222 1.059800 -0.001093
v 0.588651 0.989389 -0.018859
v 0.562102 1.204150 -0.113533
v -0.161754 -0.934795 -0.043072
v -0.282270 -1.188360 0.083607
v -0.223220 -1.118770 -0.033545
v 0.685672 1.270310 -0.007531
v 0.562102 1.204150 -0.113533
v 0.580433 1.306060 -0.125539
v 0.534680 1.138860 0.093758
v 0.639124 1.322570 0.069359
v 0.631596 1.418710 0.143249
v -0.191146 -0.715105 -0.018038
v -0.167670 -0.578421 0.036916
v -0.277861 -0.789958 0.089445
v 0.397275 0.881884 0.018732
v 0.323919 0.808209 -0.067094
v 0.396125 0.898044 -0.051399
v 0.379867 0.777195 -0.006847
v -0.181898 -1.205820 0.004850
v -0.307689 -1.266130 0.124067
v -0.297347 -1.450970 0.049988
v -0.127941 -0.206337 -0.095064
v -0.121364 -0.116340 -0.135171
v -0.068698 -0.257732 -0.002130
v -0.167670 -0.578421 0.036916
v -0.191146 -0.715105 -0.018038
v -0.113928 -0.468901 -0.017382
v -0.121364 -0.116340 -0.135171
v -0.011425 -0.224289 0.007459
v 0.013564 -0.108606 0.002679
v 0.323919 0.808209 -0.067094
v 0.282615 0.837263 -0.154425
v 0.396125 0.898044 -0.051399
v 0.397275 0.881884 0.018732
v 0.253147 0.812577 0.149765
v 0.379867 0.777195 -0.006847
v 0.139104 0.577952 0.064675
v 0.238675 0.652006 -0.006964
v 0.205981 0.711222 0.089105
v 0.157653 0.638213 -0.081660
v 0.282615 0.837263 -0.154425
v 0.323919 0.808209 -0.067094
v 0.238675 0.652006 -0.006964
v 0.253147 0.812577 0.149765
v 0.407762 0.690714 -0.009591
v 0.379867 0.777195 -0.006847
v 0.323919 0.808209 -0.067094
v 0.379867 0.777195 -0.006847
v 0.407762 0.690714 -0.009591
v 0.238675 0.652006 -0.006964
v 0.139104 0.577952 0.064675
v 0.150969 0.461787 -0.009331
v 0.157653 0.638213 -0.081660
v 0.150969 0.461787 -0.009331
v 0.110534 0.591544 -0.119722
v -0.191146 -0.715105 -0.018038
v -0.193060 -0.549340 -0.081338
v -0.113928 -0.468901 -0.017382
v -0.068698 -0.257732 -0.002130
v -0.167670 -0.578421 0.036916
v -0.113928 -0.468901 -0.017382
v 0.150969 0.461787 -0.009331
v 0.088847 0.556171 0.087151
v 0.001495 0.108278 0.031897
v 0.009758 0.007584 -0.008828
v -0.057333 0.220527 -0.094389
v -0.078395 0.024217 -0.105368
v 0.150969 0.461787 -0.009331
v -0.057333 0.220527 -0.094389
v 0.110534 0.591544 -0.119722
v -0.127941 -0.206337 -0.095064
v -0.068698 -0.257732 -0.002130
v -0.113928 -0.468901 -0.017382
v -0.191146 -0.715105 -0.018038
v -0.257241 -0.935528 -0.096213
v -0.193060 -0.549340 -0.081338
v -0.121364 -0.116340 -0.135171
v 0.009758 0.007584 -0.008828
v 0.013564 -0.108606 0.002679
v -0.078395 0.024217 -0.105368
v 0.001495 0.108278 0.031897
v 0.013564 -0.108606 0.002679
v 0.009758 0.007584 -0.008828
v -0.247325 -1.356680 -0.081260
v -0.223220 -1.118770 -0.033545
v -0.215068 -1.378060 -0.006430
v -0.191146 -0.715105 -0.018038
v -0.277861 -0.789958 0.089445
v -0.161754 -0.934795 -0.043072
v -0.316354 -1.110310 -0.102749
v -0.247325 -1.356680 -0.081260
v -0.299421 -1.383340 -0.146235
v -0.297347 -1.450970 0.049988
v -0.306003 -1.547990 0.087027
v -0.213299 -1.579930 -0.025304
v -0.213299 -1.579930 -0.025304
v -0.136487 -1.885370 -0.000644
v -0.242222 -1.806150 -0.163997
v -0.183154 -1.748240 0.079608
v -0.136487 -1.885370 -0.000644
v -0.213299 -1.579930 -0.025304
v -0.316618 -1.463130 -0.061341
v -0.242222 -1.806150 -0.163997
v -0.330774 -1.703610 -0.242106
v -0.213299 -1.579930 -0.025304
v -0.306003 -1.547990 0.087027
v -0.183154 -1.748240 0.079608
v 0.096521 0.903478 0.005048
v 0.210622 0.865449 0.085726
v 0.259422 0.964394 -0.009956
v 0.096521 0.903478 0.005048
v 0.259422 0.964394 -0.009956
v 0.282615 0.837263 -0.154425
v 0.210622 0.865449 0.085726
v 0.322707 0.940070 0.074892
v 0.259422 0.964394 -0.009956
v 0.087671 0.718056 0.018478
v 0.157653 0.638213 -0.081660
v 0.110534 0.591544 -0.119722
v -0.136487 -1.885370 -0.000644
v -0.183154 -1.748240 0.079608
v -0.330906 -2.031490 -0.007402
v -0.307689 -1.266130 0.124067
v -0.363994 -1.403840 0.038814
v -0.297347 -1.450970 0.049988
v -0.356030 -1.871730 0.242107
v -0.507543 -1.851620 0.131223
v -0.465755 -2.406490 0.002636
v -0.011425 -0.224289 0.007459
v -0.171145 -0.210467 0.083167
v -0.068698 -0.257732 -0.002130
v -0.011425 -0.224289 0.007459
v -0.135675 -0.144034 0.104971
v -0.171145 -0.210467 0.083167
v -0.332514 -1.086840 0.093622
v -0.402611 -1.277740 0.032609
v -0.282270 -1.188360 0.083607
v -0.402611 -1.277740 0.032609
v -0.363994 -1.403840 0.038814
v -0.307689 -1.266130 0.124067
v 0.416132 0.969656 0.123466
v 0.585222 1.059800 -0.001093
v 0.458527 1.077500 0.116430
v 0.416132 0.969656 0.123466
v 0.588651 0.989389 -0.018859
v 0.585222 1.059800 -0.001093
v 0.416132 0.969656 0.123466
v 0.427317 0.915064 0.081763
v 0.588651 0.989389 -0.018859
v 0.253147 0.812577 0.149765
v 0.397275 0.881884 0.018732
v 0.322707 0.940070 0.074892
v -0.297347 -1.450970 0.049988
v -0.215068 -1.378060 -0.006430
v -0.181898 -1.205820 0.004850
v 0.585222 1.059800 -0.001093
v 0.534680 1.138860 0.093758
v 0.458527 1.077500 0.116430
v 0.773910 1.327110 -0.017920
v 0.730120 1.500310 0.072315
v 0.639124 1.322570 0.069359
v 0.745550 1.135360 -0.008286
v 0.639124 1.322570 0.069359
v 0.534680 1.138860 0.093758
v 0.150969 0.461787 -0.009331
v 0.139104 0.577952 0.064675
v 0.088847 0.556171 0.087151
v 0.001495 0.108278 0.031897
v 0.009758 0.007584 -0.008828
v 0.147725 0.128634 -0.014807
v -0.068698 -0.257732 -0.002130
v -0.171145 -0.210467 0.083167
v -0.236174 -0.399736 0.076488
v 0.407762 0.690714 -0.009591
v 0.253147 0.812577 0.149765
v 0.205981 0.711222 0.089105
v -0.402611 -1.277740 0.032609
v -0.444811 -1.449530 0.004105
v -0.363994 -1.403840 0.038814
v 0.773910 1.327110 -0.017920
v 0.730120 1.500310 0.072315
v -0.135675 -0.144034 0.104971
v -0.011425 -0.224289 0.007459
v 0.013564 -0.108606 0.002679
v -0.161754 -0.934795 -0.043072
v -0.277861 -0.789958 0.089445
v -0.332514 -1.086840 0.093622
v -0.063191 0.123870 0.079257
v -0.135675 -0.144034 0.104971
v 0.013564 -0.108606 0.002679
v -0.063191 0.123870 0.079257
v 0.013564 -0.108606 0.002679
v 0.001495 0.108278 0.031897
v -0.029488 0.358063 0.076767
v -0.063191 0.123870 0.079257
v 0.001495 0.108278 0.031897
v 0.685672 1.270310 -0.007531
v 0.773910 1.327110 -0.017920
v 0.639124 1.322570 0.069359
v 0.088847 0.556171 0.087151
v -0.029488 0.358063 0.076767
v 0.001495 0.108278 0.031897
v 0.585222 1.059800 -0.001093
v 0.745550 1.135360 -0.008286
v 0.534680 1.138860 0.093758
v 0.534680 1.138860 0.093758
v 0.521259 1.238500 0.058528
v 0.458527 1.077500 0.116430
v 0.730120 1.500310 0.072315
v 0.639124 1.322570 0.069359
v 0.126086 0.655110 0.062425
v 0.088847 0.556171 0.087151
v 0.139104 0.577952 0.064675
v -0.215068 -1.378060 -0.006430
v -0.297347 -1.450970 0.049988
v -0.213299 -1.579930 -0.025304
v -0.236174 -0.399736 0.076488
v -0.422350 -0.545899 -0.023134
v -0.385915 -0.679715 -0.008748
v 0.150969 0.461787 -0.009331
v 0.001495 0.108278 0.031897
v 0.147725 0.128634 -0.014807
v -0.167670 -0.578421 0.036916
v -0.068698 -0.257732 -0.002130
v -0.236174 -0.399736 0.076488
v -0.236174 -0.399736 0.076488
v -0.277861 -0.789958 0.089445
v -0.167670 -0.578421 0.036916
v -0.287471 -0.098485 -0.009269
v -0.171145 -0.210467 0.083167
v -0.135675 -0.144034 0.104971
v 0.205981 0.711222 0.089105
v 0.126086 0.655110 0.062425
v 0.139104 0.577952 0.064675
v -0.063191 0.123870 0.079257
v -0.029488 0.358063 0.076767
v -0.145591 -0.001689 0.053107
v -0.236174 -0.399736 0.076488
v -0.385915 -0.679715 -0.008748
v -0.277861 -0.789958 0.089445
v 0.458527 1.077500 0.116430
v 0.441028 1.277090 -0.038262
v 0.332986 1.171130 -0.008449
v 0.427317 0.915064 0.081763
v 0.416132 0.969656 0.123466
v 0.322707 0.940070 0.074892
v -0.385915 -0.679715 -0.008748
v -0.441038 -1.036190 -0.006197
v -0.277861 -0.789958 0.089445
v -0.277861 -0.789958 0.089445
v -0.441038 -1.036190 -0.006197
v -0.332514 -1.086840 0.093622
v 0.253147 0.812577 0.149765
v 0.322707 0.940070 0.074892
v 0.210622 0.865449 0.085726
v 0.122153 0.791370 -0.015366
v 0.210622 0.865449 0.085726
v 0.096521 0.903478 0.005048
v 0.205981 0.711222 0.089105
v 0.087671 0.718056 0.018478
v 0.126086 0.655110 0.062425
v -0.011652 0.587732 -0.006261
v 0.126086 0.655110 0.062425
v 0.087671 0.718056 0.018478
v -0.363994 -1.403840 0.038814
v -0.384900 -1.616690 0.060115
v -0.297347 -1.450970 0.049988
v -0.363994 -1.403840 0.038814
v -0.444811 -1.449530 0.004105
v -0.384900 -1.616690 0.060115
v -0.135675 -0.144034 0.104971
v -0.063191 0.123870 0.079257
v -0.145591 -0.001689 0.053107
v 0.416132 0.969656 0.123466
v 0.323607 1.066220 -0.005101
v 0.322707 0.940070 0.074892
v 0.087671 0.718056 0.018478
v 0.205981 0.711222 0.089105
v 0.122153 0.791370 -0.015366
v -0.011652 0.587732 -0.006261
v -0.029488 0.358063 0.076767
v 0.088847 0.556171 0.087151
v -0.029488 0.358063 0.076767
v -0.011652 0.587732 -0.006261
v -0.098572 0.389829 -0.004123
v 0.441028 1.277090 -0.038262
v 0.458527 1.077500 0.116430
v 0.521259 1.238500 0.058528
v 0.088847 0.556171 0.087151
v 0.126086 0.655110 0.062425
v -0.011652 0.587732 -0.006261
v -0.444811 -1.449530 0.004105
v -0.577106 -1.795390 0.005825
v -0.384900 -1.616690 0.060115
v -0.180502 0.059279 -0.004376
v -0.287471 -0.098485 -0.009269
v -0.135675 -0.144034 0.104971
v 0.416132 0.969656 0.123466
v 0.458527 1.077500 0.116430
v 0.323607 1.066220 -0.005101
v -0.161754 -0.934795 -0.043072
v -0.332514 -1.086840 0.093622
v -0.282270 -1.188360 0.083607
v 0.323607 1.066220 -0.005101
v 0.458527 1.077500 0.116430
v 0.332986 1.171130 -0.008449
v -0.221150 -0.181387 -0.008557
v -0.422350 -0.545899 -0.023134
v -0.236174 -0.399736 0.076488
v -0.307689 -1.266130 0.124067
v -0.181898 -1.205820 0.004850
v -0.282270 -1.188360 0.083607
v 0.631596 1.418710 0.143249
v 0.531494 1.470730 0.060867
v 0.521259 1.238500 0.058528
v 0.531494 1.470730 0.060867
v 0.631596 1.418710 0.143249
v -0.384900 -1.616690 0.060115
v -0.306003 -1.547990 0.087027
v -0.297347 -1.450970 0.049988
v -0.306003 -1.547990 0.087027
v -0.356030 -1.871730 0.242107
v -0.183154 -1.748240 0.079608
v -0.356030 -1.871730 0.242107
v -0.306003 -1.547990 0.087027
v -0.507543 -1.851620 0.131223
v -0.181898 -1.205820 0.004850
v -0.223220 -1.118770 -0.033545
v -0.282270 -1.188360 0.083607
v -0.507543 -1.851620 0.131223
v -0.577106 -1.795390 0.005825
v -0.448320 -2.126750 -0.017984
v -0.577106 -1.795390 0.005825
v -0.428259 -1.772040 -0.152298
v -0.448320 -2.126750 -0.017984
v -0.332514 -1.086840 0.093622
v -0.441038 -1.036190 -0.006197
v -0.399524 -1.185430 -0.022026
v -0.221150 -0.181387 -0.008557
v -0.171145 -0.210467 0.083167
v -0.287471 -0.098485 -0.009269
v -0.373308 -1.205650 -0.074599
v -0.316618 -1.463130 -0.061341
v -0.399524 -1.185430 -0.022026
v -0.373308 -1.205650 -0.074599
v -0.299421 -1.383340 -0.146235
v -0.316618 -1.463130 -0.061341
v -0.422350 -0.545899 -0.023134
v -0.357434 -0.913404 -0.085068
v -0.385915 -0.679715 -0.008748
v -0.121364 -0.116340 -0.135171
v -0.127941 -0.206337 -0.095064
v -0.221150 -0.181387 -0.008557
v -0.465755 -2.406490 0.002636
v -0.507543 -1.851620 0.131223
v -0.448320 -2.126750 -0.017984
v -0.357434 -0.913404 -0.085068
v -0.373308 -1.205650 -0.074599
v -0.399524 -1.185430 -0.022026
v -0.385915 -0.679715 -0.008748
v -0.357434 -0.913404 -0.085068
v -0.441038 -1.036190 -0.006197
v -0.098572 0.389829 -0.004123
v -0.057333 0.220527 -0.094389
v -0.180502 0.059279 -0.004376
v -0.145591 -0.001689 0.053107
v -0.180502 0.059279 -0.004376
v -0.135675 -0.144034 0.104971
v -0.145591 -0.001689 0.053107
v -0.029488 0.358063 0.076767
v -0.180502 0.059279 -0.004376
v -0.098572 0.389829 -0.004123
v -0.399524 -1.185430 -0.022026
v -0.444811 -1.449530 0.004105
v -0.402611 -1.277740 0.032609
v 0.087671 0.718056 0.018478
v 0.122153 0.791370 -0.015366
v 0.157653 0.638213 -0.081660
v 0.122153 0.791370 -0.015366
v 0.205981 0.711222 0.089105
v 0.210622 0.865449 0.085726
v -0.171145 -0.210467 0.083167
v -0.221150 -0.181387 -0.008557
v -0.236174 -0.399736 0.076488
v 0.096521 0.903478 0.005048
v 0.157653 0.638213 -0.081660
v 0.122153 0.791370 -0.015366
v 0.205981 0.711222 0.089105
v 0.253147 0.812577 0.149765
v 0.210622 0.865449 0.085726
v 0.322707 0.940070 0.074892
v 0.323607 1.066220 -0.005101
v 0.259422 0.964394 -0.009956
v -0.332514 -1.086840 0.093622
v -0.399524 -1.185430 -0.022026
v -0.402611 -1.277740 0.032609
v 0.417985 0.982143 -0.146504
v 0.483559 1.149080 -0.052062
v 0.562102 1.204150 -0.113533
v 0.521259 1.238500 0.058528
v 0.478021 1.415890 -0.036795
v 0.441028 1.277090 -0.038262
v 0.417985 0.982143 -0.146504
v 0.323607 1.066220 -0.005101
v 0.332986 1.171130 -0.008449
v 0.534680 1.138860 0.093758
v 0.631596 1.418710 0.143249
v 0.521259 1.238500 0.058528
v -0.577106 -1.795390 0.005825
v -0.444811 -1.449530 0.004105
v -0.428259 -1.772040 -0.152298
v 0.521259 1.238500 0.058528
v 0.531494 1.470730 0.060867
v 0.478021 1.415890 -0.036795
v -0.316618 -1.463130 -0.061341
v -0.330774 -1.703610 -0.242106
v -0.428259 -1.772040 -0.152298
v -0.282270 -1.188360 0.083607
v -0.402611 -1.277740 0.032609
v -0.307689 -1.266130 0.124067
v -0.577106 -1.795390 0.005825
v -0.507543 -1.851620 0.131223
v -0.384900 -1.616690 0.060115
v -0.384900 -1.616690 0.060115
v -0.507543 -1.851620 0.131223
v -0.306003 -1.547990 0.087027
v -0.330906 -2.031490 -0.007402
v -0.242222 -1.806150 -0.163997
v -0.136487 -1.885370 -0.000644
v -0.448320 -2.126750 -0.017984
v -0.242222 -1.806150 -0.163997
v -0.330906 -2.031490 -0.007402
v 0.397275 0.881884 0.018732
v 0.588651 0.989389 -0.018859
v 0.427317 0.915064 0.081763
v 0.205981 0.711222 0.089105
v 0.238675 0.652006 -0.006964
v 0.407762 0.690714 -0.009591
v 0.588651 0.989389 -0.018859
v 0.396125 0.898044 -0.051399
v 0.417985 0.982143 -0.146504
v 0.397275 0.881884 0.018732
v 0.396125 0.898044 -0.051399
v 0.588651 0.989389 -0.018859
v 0.685672 1.270310 -0.007531
v 0.580433 1.306060 -0.125539
v 0.773910 1.327110 -0.017920
v 0.397275 0.881884 0.018732
v 0.427317 0.915064 0.081763
v 0.322707 0.940070 0.074892
v 0.396125 0.898044 -0.051399
v 0.345478 0.953350 -0.090186
v 0.417985 0.982143 -0.146504
v 0.478021 1.415890 -0.036795
v 0.531494 1.470730 0.060867
v -0.330774 -1.703610 -0.242106
v -0.242222 -1.806150 -0.163997
v -0.448320 -2.126750 -0.017984
v -0.428259 -1.772040 -0.152298
v -0.330774 -1.703610 -0.242106
v -0.448320 -2.126750 -0.017984
v 0.745550 1.135360 -0.008286
v 0.562102 1.204150 -0.113533
v 0.685672 1.270310 -0.007531
v -0.121364 -0.116340 -0.135171
v -0.221150 -0.181387 -0.008557
v -0.287471 -0.098485 -0.009269
v -0.121364 -0.116340 -0.135171
v -0.011425 -0.224289 0.007459
v -0.068698 -0.257732 -0.002130
v 0.562102 1.204150 -0.113533
v 0.588651 0.989389 -0.018859
v 0.417985 0.982143 -0.146504
v 0.396125 0.898044 -0.051399
v 0.282615 0.837263 -0.154425
v 0.345478 0.953350 -0.090186
v -0.113928 -0.468901 -0.017382
v -0.186717 -0.266823 -0.075232
v -0.127941 -0.206337 -0.095064
v -0.161754 -0.934795 -0.043072
v -0.223220 -1.118770 -0.033545
v -0.257241 -0.935528 -0.096213
v -0.316354 -1.110310 -0.102749
v 0.238675 0.652006 -0.006964
v 0.150969 0.461787 -0.009331
v 0.157653 0.638213 -0.081660
v 0.580433 1.306060 -0.125539
v 0.637607 1.487130 -0.151711
v 0.773910 1.327110 -0.017920
v 0.773910 1.327110 -0.017920
v 0.637607 1.487130 -0.151711
v -0.357434 -0.913404 -0.085068
v -0.399524 -1.185430 -0.022026
v -0.441038 -1.036190 -0.006197
v 0.009758 0.007584 -0.008828
v -0.057333 0.220527 -0.094389
v 0.147725 0.128634 -0.014807
v 0.150969 0.461787 -0.009331
v 0.147725 0.128634 -0.014807
v -0.057333 0.220527 -0.094389
v -0.448320 -2.126750 -0.017984
v -0.330906 -2.031490 -0.007402
v -0.465755 -2.406490 0.002636
v 0.407762 0.690714 -0.009591
v 0.238675 0.652006 -0.006964
v 0.323919 0.808209 -0.067094
v -0.223220 -1.118770 -0.033545
v -0.181898 -1.205820 0.004850
v -0.215068 -1.378060 -0.006430
v -0.316618 -1.463130 -0.061341
v -0.444811 -1.449530 0.004105
v -0.399524 -1.185430 -0.022026
v 0.745550 1.135360 -0.008286
v 0.585222 1.059800 -0.001093
v 0.562102 1.204150 -0.113533
v -0.113928 -0.468901 -0.017382
v -0.193060 -0.549340 -0.081338
v -0.186717 -0.266823 -0.075232
v -0.257241 -0.935528 -0.096213
v -0.316354 -1.110310 -0.102749
v -0.357434 -0.913404 -0.085068
v -0.373308 -1.205650 -0.074599
v -0.186717 -0.266823 -0.075232
v -0.193060 -0.549340 -0.081338
v -0.257241 -0.935528 -0.096213
v 0.417985 0.982143 -0.146504
v 0.332986 1.171130 -0.008449
v 0.483559 1.149080 -0.052062
v -0.186717 -0.266823 -0.075232
v -0.257241 -0.935528 -0.096213
v -0.357434 -0.913404 -0.085068
v -0.316354 -1.110310 -0.102749
v -0.299421 -1.383340 -0.146235
v -0.373308 -1.205650 -0.074599
v -0.186717 -0.266823 -0.075232
v -0.357434 -0.913404 -0.085068
v -0.422350 -0.545899 -0.023134
v -0.057333 0.220527 -0.094389
v -0.078395 0.024217 -0.105368
v -0.180502 0.059279 -0.004376
v 0.332986 1.171130 -0.008449
v 0.441028 1.277090 -0.038262
v 0.483559 1.149080 -0.052062
v -0.223220 -1.118770 -0.033545
v -0.247325 -1.356680 -0.081260
v -0.316354 -1.110310 -0.102749
v 0.282615 0.837263 -0.154425
v 0.157653 0.638213 -0.081660
v 0.096521 0.903478 0.005048
v -0.011652 0.587732 -0.006261
v -0.057333 0.220527 -0.094389
v -0.098572 0.389829 -0.004123
v 0.282615 0.837263 -0.154425
v 0.259422 0.964394 -0.009956
v 0.345478 0.953350 -0.090186
v -0.316618 -1.463130 -0.061341
v -0.215068 -1.378060 -0.006430
v -0.213299 -1.579930 -0.025304
v -0.011652 0.587732 -0.006261
v 0.110534 0.591544 -0.119722
v -0.057333 0.220527 -0.094389
v -0.191146 -0.715105 -0.018038
v -0.161754 -0.934795 -0.043072
v -0.257241 -0.935528 -0.096213
v 0.345478 0.953350 -0.090186
v 0.259422 0.964394 -0.009956
v 0.323607 1.066220 -0.005101
v 0.441028 1.277090 -0.038262
v 0.478021 1.415890 -0.036795
v 0.580433 1.306060 -0.125539
v 0.345478 0.953350 -0.090186
v 0.323607 1.066220 -0.005101
v 0.417985 0.982143 -0.146504
v 0.087671 0.718056 0.018478
v 0.110534 0.591544 -0.119722
v -0.011652 0.587732 -0.006261
v -0.121364 -0.116340 -0.135171
v -0.180502 0.059279 -0.004376
v -0.078395 0.024217 -0.105368
v -0.287471 -0.098485 -0.009269
v 0.441028 1.277090 -0.038262
v 0.580433 1.306060 -0.125539
v 0.483559 1.149080 -0.052062
v 0.580433 1.306060 -0.125539
v 0.478021 1.415890 -0.036795
v 0.637607 1.487130 -0.151711
v -0.221150 -0.181387 -0.008557
v -0.127941 -0.206337 -0.095064
v -0.186717 -0.266823 -0.075232
v -0.186717 -0.266823 -0.075232
v -0.422350 -0.545899 -0.023134
v -0.221150 -0.181387 -0.008557
v 0.562102 1.204150 -0.113533
v 0.483559 1.149080 -0.052062
v 0.580433 1.306060 -0.125539
v 0.637607 1.487130 -0.151711
v 0.478021 1.415890 -0.036795
v -0.316618 -1.463130 -0.061341
v -0.428259 -1.772040 -0.152298
v -0.444811 -1.449530 0.004105
v -0.213299 -1.579930 -0.025304
v -0.242222 -1.806150 -0.163997
v -0.316618 -1.463130 -0.061341
vn 0.7525 -0.5176 0.4072
vn 0.7479 -0.5511 -0.3700
vn 0.7027 -0.5445 -0.4580
vn 0.8826 0.3862 0.2680
vn 0.9037 -0.3143 0.2907
vn 0.9908 0.0786 -0.1101
vn 0.9116 -0.2907 0.2907
vn 0.7000 -0.2045 -0.6843
vn 0.7568 -0.3626 0.5439
vn 0.8337 -0.3228 0.4480
vn 0.8346 -0.2835 -0.4723
vn 0.8346 -0.2834 -0.4724
vn 0.8346 -0.2835 -0.4724
vn 0.8346 -0.2833 -0.4725
vn 0.7242 -0.2203 0.6535
vn 0.7017 -0.3312 -0.6308
vn 0.9035 -0.2828 0.3221
vn 0.6222 -0.3149 -0.7167
vn 0.7145 -0.4868 -0.5025
vn 0.7145 -0.4868 -0.5024
vn 0.7179 -0.2761 0.6390
vn 0.7164 -0.4566 0.5275
vn 0.6310 -0.5679 -0.5285
vn 0.7784 0.2359 0.5818
vn 0.7726 0.2680 -0.5755
vn 0.7017 -0.3312 0.6308
vn 0.7018 -0.3312 0.6307
vn 0.7539 -0.2748 -0.5968
vn 0.7413 -0.2287 -0.6309
vn 0.8770 -0.2212 0.4266
vn 0.7090 -0.2206 0.6698
vn 0.7091 -0.2206 0.6698
vn 0.4466 -0.2115 -0.8694
vn 0.5192 -0.1496 -0.8415
vn 0.5192 -0.1495 -0.8414
vn 0.5192 -0.1495 -0.8415
vn 0.8021 -0.1337 -0.5820
vn 0.9129 -0.1338 -0.3856
vn 0.7212 -0.0627 -0.6898
vn 0.7212 -0.0627 -0.6899
vn 0.9947 0.0395 0.0947
vn 0.9153 -0.0158 -0.4024
vn 0.7672 0.0316 0.6406
vn 0.7411 0.1498 -0.6545
vn 0.7832 0.1583 0.6012
vn 0.8635 0.1805 -0.4710
vn 0.9596 0.2517 0.1259
vn 0.8078 0.3216 -0.4940
vn 0.7480 0.4409 0.4960
vn 0.7481 0.4409 0.4960
vn -0.2128 0.7329 0.6462
vn -0.3160 0.6864 -0.6549
vn -0.4333 0.7248 0.5357
vn -0.1577 0.7177 -0.6783
vn 0.2837 -0.4098 0.8669
vn -0.3945 -0.3629 0.8442
vn -0.3946 -0.3628 0.8442
vn -0.5978 -0.2202 0.7708
vn 0.2765 -0.6635 0.6952
vn 0.3466 -0.4569 0.8192
vn -0.2443 -0.2129 0.9460
vn -0.6722 -0.1740 0.7196
vn 0.6473 -0.2052 0.7341
vn 0.6369 -0.1572 0.7547
vn 0.6137 -0.3934 0.6845
vn 0.6466 0.0946 0.7570
vn 0.6558 -0.1738 0.7346
vn 0.5671 -0.4569 0.6853
vn 0.5266 -0.2829 0.8017
vn 0.4309 -0.1256 0.8936
vn 0.5170 -0.4230 0.7442
vn 0.5170 -0.4230 0.7441
vn 0.3311 -0.3313 0.8835
vn 0.5608 -0.2212 0.7978
vn 0.3067 -0.5898 0.7470
vn -0.3625 -0.0629 0.9299
vn -0.3625 -0.0630 0.9299
vn 0.5756 -0.0946 0.8122
vn 0.6823 -0.1176 0.7215
vn 0.5764 -0.0787 0.8134
vn 0.5764 -0.0789 0.8133
vn 0.5764 -0.0790 0.8133
vn 0.5764 -0.0788 0.8133
vn 0.4576 -0.5838 0.6706
vn 0.1727 -0.1492 0.9736
vn 0.3311 -0.6308 0.7017
vn 0.0078 0.3303 0.9438
vn 0.0079 0.3303 0.9438
vn 0.3714 0.0869 0.9244
vn 0.6048 -0.0706 0.7933
vn 0.6048 -0.0707 0.7933
vn -0.4564 -0.0315 0.8892
vn 0.3067 -0.0159 0.9517
vn 0.4407 -0.0315 0.8971
vn 0.4628 -0.0157 0.8863
vn -0.5915 0.0552 0.8044
vn -0.5915 0.0551 0.8044
vn -0.2996 -0.0236 0.9538
vn -0.3922 0.0628 0.9177
vn -0.6161 0.0947 0.7820
vn -0.3388 0.5594 0.7565
vn -0.1971 -0.6230 0.7570
vn -0.6118 0.1019 0.7844
vn -0.6396 0.1264 0.7582
vn -0.6397 0.1263 0.7582
vn -0.3304 0.6058 0.7238
vn -0.6145 -0.2751 0.7394
vn -0.6141 -0.2754 0.7396
vn -0.6141 -0.2753 0.7396
vn -0.4816 0.2843 0.8290
vn -0.4816 0.2842 0.8290
vn -0.5287 0.2446 0.8128
vn -0.0864 0.1100 0.9902
vn -0.4558 0.1336 0.8800
vn -0.5993 0.2365 0.7648
vn -0.5994 0.2365 0.7647
vn -0.5217 0.4586 0.7194
vn -0.5218 0.4585 0.7194
vn -0.4091 0.5348 0.7393
vn -0.4090 0.5348 0.7394
vn -0.5918 0.3156 0.7417
vn -0.6627 0.2998 0.6863
vn -0.5817 0.4638 0.6682
vn -0.5579 0.3930 0.7309
vn -0.5580 0.3930 0.7309
vn -0.4005 0.1571 0.9027
vn -0.5044 0.3153 0.8038
vn -0.5044 0.3153 0.8039
vn -0.6546 0.2997 0.6940
vn 0.5205 0.1735 0.8360
vn -0.6683 0.0865 0.7389
vn -0.6682 0.0865 0.7389
vn -0.6305 0.3152 0.7093
vn 0.6287 0.1886 0.7544
vn -0.6283 0.0236 0.7776
vn -0.5541 0.3402 0.7597
vn -0.5540 0.3403 0.7598
vn 0.5333 0.2980 0.7917
vn -0.4948 0.4320 0.7540
vn 0.5740 0.5425 0.6134
vn -0.8743 -0.3624 0.3229
vn -0.6935 -0.2209 -0.6858
vn -0.7158 -0.2674 0.6451
vn -0.7640 -0.6064 0.2205
vn -0.9031 -0.2199 -0.3690
vn -0.8962 -0.2201 -0.3852
vn -0.9221 -0.2128 0.3231
vn -0.6921 -0.2517 -0.6765
vn -0.9122 0.0237 -0.4090
vn -0.9122 0.0236 -0.4090
vn -0.8892 0.0314 -0.4565
vn -0.8892 0.0314 -0.4564
vn -0.7660 0.1185 -0.6318
vn -0.7225 0.1804 -0.6675
vn -0.7226 0.1803 -0.6674
vn -0.7225 0.1804 -0.6674
vn -0.7411 0.1813 0.6465
vn -0.7224 0.1806 0.6674
vn -0.7224 0.1806 0.6675
vn -0.9448 0.1890 0.2677
vn -0.7856 0.0864 -0.6127
vn -0.7631 0.0393 0.6451
vn -0.8096 0.2594 0.5266
vn -0.9753 -0.2202 -0.0157
vn -0.8179 0.0392 0.5741
vn -0.6770 0.3936 0.6219
vn -0.9129 0.2282 0.3384
vn -0.9129 0.2282 0.3383
vn -0.7185 0.5369 -0.4422
vn -0.7187 0.1816 0.6712
vn -0.7187 0.1817 0.6712
vn -0.8173 0.0550 -0.5736
vn -0.7315 0.1337 0.6686
vn -0.7179 0.2761 -0.6390
vn -0.8843 0.0316 0.4658
vn -0.7561 0.4175 -0.5040
vn -0.6276 0.5099 0.5884
vn -0.6276 0.5099 0.5883
vn -0.6352 0.5097 0.5803
vn -0.6381 0.5120 0.5751
vn 0.4876 -0.6213 -0.6134
vn 0.5505 -0.6134 -0.5662
vn 0.5125 -0.8358 0.1971
vn 0.1896 -0.8059 0.5609
vn 0.4333 -0.7248 -0.5357
vn 0.4503 -0.8689 -0.2054
vn 0.3939 -0.7169 -0.5752
vn -0.2285 -0.8126 0.5361
vn -0.2286 -0.8125 0.5362
vn -0.2443 -0.7012 -0.6698
vn 0.1733 -0.4963 -0.8507
vn -0.5435 -0.2679 -0.7955
vn -0.5435 -0.2678 -0.7955
vn 0.5512 0.2520 -0.7954
vn -0.5671 -0.4570 -0.6853
vn 0.6221 -0.3152 -0.7167
vn 0.6221 -0.3151 -0.7167
vn 0.5843 -0.2683 -0.7659
vn 0.5843 -0.2684 -0.7659
vn 0.6527 0.0629 -0.7550
vn 0.6527 0.0630 -0.7550
vn -0.0314 -0.2829 -0.9586
vn -0.0314 -0.2830 -0.9586
vn 0.5282 -0.1892 -0.8278
vn 0.6749 -0.2983 -0.6749
vn 0.4887 -0.2759 -0.8277
vn -0.6128 -0.0865 -0.7855
vn -0.6128 -0.0864 -0.7855
vn 0.4463 -0.2115 -0.8695
vn 0.5190 -0.1493 -0.8416
vn 0.1575 -0.0787 -0.9844
vn 0.0789 -0.3946 -0.9155
vn 0.6051 -0.0629 -0.7937
vn 0.6050 -0.0629 -0.7937
vn -0.4566 -0.0079 -0.8896
vn 0.2354 -0.5732 -0.7849
vn 0.2353 -0.5733 -0.7848
vn 0.6285 -0.0000 -0.7778
vn -0.2589 0.0314 -0.9654
vn -0.2591 0.0314 -0.9653
vn 0.1182 0.0157 -0.9929
vn -0.1655 0.5361 -0.8278
vn -0.1026 0.0394 -0.9939
vn -0.5666 0.0944 -0.8185
vn -0.5667 0.0944 -0.8185
vn -0.3311 0.1025 -0.9380
vn -0.6787 0.1105 -0.7261
vn -0.2757 0.0079 -0.9612
vn 0.5981 0.1023 -0.7949
vn -0.6238 0.1105 -0.7738
vn -0.5993 0.2602 -0.7570
vn -0.4959 0.6140 -0.6141
vn -0.4959 0.6140 -0.6140
vn 0.4170 0.0865 -0.9048
vn -0.6603 0.2516 -0.7076
vn 0.4784 0.1647 -0.8626
vn 0.4784 0.1646 -0.8626
vn 0.4783 0.1647 -0.8626
vn -0.5916 0.4102 -0.6941
vn -0.5459 0.1581 -0.8228
vn -0.6531 0.3698 -0.6609
vn -0.5769 0.5533 -0.6009
vn -0.5566 0.3684 -0.7447
vn -0.5565 0.3684 -0.7447
vn -0.5198 -0.0788 -0.8506
vn -0.6044 0.0785 -0.7928
vn -0.5922 0.3316 -0.7344
vn -0.5751 0.3468 -0.7410
vn -0.5751 0.3468 -0.7409
vn -0.6236 0.0237 -0.7814
vn -0.3869 0.3870 -0.8370
vn 0.6309 0.3470 -0.6940
vt 49.990002 -5.218530
vt 49.969700 -5.233970
vt 50.000900 -5.253940
vt 50.010201 -5.169580
vt 50.007702 -5.182890
vt 50.018299 -5.172920
vt 50.000801 -5.172260
vt 50.000999 -4.858080
vt 50.000900 -4.841210
vt 49.991299 -4.834680
vt 49.999699 -5.300810
vt 50.000099 -4.867530
vt 50.002399 -4.876330
vt 50.014198 -4.849480
vt 50.005402 -5.116850
vt 49.989498 -5.148540
vt 50.004200 -5.139850
vt 50.015701 -4.836740
vt 49.988300 -4.857640
vt 49.982101 -4.822660
vt 50.002300 -5.089390
vt 49.995399 -5.072300
vt 49.988800 -5.098740
vt 49.997700 -4.889760
vt 50.008400 -4.898970
vt 50.006401 -4.887740
vt 50.000900 -4.902850
vt 49.999401 -5.150730
vt 49.984501 -5.158270
vt 49.993801 -5.181370
vt 50.011902 -5.025790
vt 50.016899 -5.014540
vt 50.000301 -5.032220
vt 50.002201 -5.058610
vt 49.999100 -5.028040
vt 49.999699 -5.013580
vt 50.019299 -4.895340
vt 49.981300 -4.898430
vt 49.991901 -4.927760
vt 50.000900 -4.918500
vt 49.988899 -4.911100
vt 50.010201 -4.920220
vt 50.001202 -4.913660
vt 50.001202 -4.942280
vt 50.014999 -4.926060
vt 50.010201 -5.068670
vt 49.989101 -4.930480
vt 49.995998 -4.986460
vt 50.011799 -4.972430
vt 50.001099 -4.999050
vt 50.013199 -4.996970
vt 50.012001 -5.116940
vt 50.012798 -5.138790
vt 49.989101 -5.193500
vt 50.003201 -5.197490
vt 50.000099 -5.235670
vt 50.020500 -5.225770
vt 50.030300 -5.212950
vt 49.950100 -4.999370
vt 49.935799 -4.989280
vt 49.929699 -5.001240
vt 49.926800 -5.019300
vt 49.921799 -4.990640
vt 49.951199 -4.997690
vt 49.942501 -5.010210
vt 49.948399 -5.014970
vt 50.020802 -5.235670
vt 50.014900 -5.218530
vt 49.996498 -5.253940
vt 49.999401 -5.158270
vt 49.992298 -5.175480
vt 50.000702 -5.181370
vt 49.993301 -5.233970
vt 49.974400 -5.231450
vt 49.979599 -5.300810
vt 50.036400 -5.028040
vt 50.016399 -5.026310
vt 50.029202 -5.032220
vt 50.020901 -5.018000
vt 49.996300 -5.135850
vt 49.987499 -5.159720
vt 50.002499 -5.148540
vt 50.089802 -4.878790
vt 50.111000 -4.867530
vt 50.095100 -4.865310
vt 50.111401 -4.876330
vt 50.091202 -4.885620
vt 50.069500 -4.898430
vt 50.087502 -4.889760
vt 50.078201 -4.882490
vt 50.010899 -5.172260
vt 50.015099 -5.150730
vt 50.104698 -4.857640
vt 50.134602 -4.834110
vt 50.129101 -4.812460
vt 50.117699 -4.834680
vt 50.131001 -4.858080
vt 50.056702 -4.942280
vt 50.055199 -4.927760
vt 50.048901 -4.930480
vt 50.037998 -4.986460
vt 50.039001 -4.999050
vt 50.056301 -4.983920
vt 50.008301 -5.049970
vt 50.088799 -4.913660
vt 50.063599 -4.911100
vt 49.982201 -5.181190
vt 50.039501 -5.013580
vt 50.017601 -5.116850
vt 50.003101 -5.098740
vt 50.029900 -4.984520
vt 50.034100 -4.955240
vt 50.123501 -4.841210
vt 50.103001 -4.845190
vt 50.053600 -4.918110
vt 50.011200 -5.197490
vt 49.985001 -5.068240
vt 49.989601 -5.084960
vt 50.016899 -5.072300
vt 50.001900 -5.012310
vt 50.019600 -5.000210
vt 50.092999 -4.840360
vt 50.079399 -4.853610
vt 49.982700 -5.129520
vt 50.064201 -4.891820
vt 50.053101 -4.901080
vt 50.049900 -4.887070
vt 50.048801 -4.910240
vt 50.036400 -4.926530
vt 49.989700 -5.202090
vt 50.078300 -4.866720
vt 50.025501 -4.951270
vt 49.965698 -5.224420
vt 50.015301 -4.992590
vt 50.010201 -5.022670
vt 50.116798 -4.822660
vt 50.104301 -4.816160
vt 49.999599 -5.193500
vt 50.009899 -5.139850
vt 50.016399 -5.231450
vt 50.000702 -5.224420
vt 49.997799 -5.265840
vt 49.980999 -5.221510
vt 50.011700 -5.135850
vt 49.999199 -5.129520
vt 49.997200 -5.148180
vt 49.998901 -5.022670
vt 50.010399 -5.026310
vt 49.998798 -5.012310
vt 49.990700 -5.150710
vt 49.992298 -5.182890
vt 49.981701 -5.172920
vt 49.997101 -5.068240
vt 49.989399 -5.114180
vt 49.998901 -5.084960
vt 49.983101 -5.014540
vt 49.988098 -5.025790
vt 50.000301 -5.300810
vt 49.999500 -4.951270
vt 49.988201 -4.972430
vt 49.999500 -4.992590
vt 50.006599 -5.000210
vt 50.013100 -5.018000
vt 50.009602 -4.955240
vt 50.000500 -5.181190
vt 50.004101 -5.159720
vt 50.002300 -4.910240
vt 49.998100 -4.901080
vt 49.989799 -4.920220
vt 50.011101 -4.911100
vt 50.010700 -4.891820
vt 50.009602 -5.049970
vt 50.000599 -4.887070
vt 50.018700 -4.898430
vt 50.009399 -4.882490
vt 49.999401 -4.866720
vt 49.998798 -4.879450
vt 49.981701 -4.877230
vt 49.993500 -4.856360
vt 49.985802 -4.849480
vt 50.007301 -4.845190
vt 49.995399 -4.823010
vt 49.995201 -4.840360
vt 49.998901 -4.853610
vt 50.011700 -4.857640
vt 50.017899 -4.822660
vt 50.007599 -4.816160
vt 49.969700 -5.212950
vt 50.010502 -5.148540
vt 50.015499 -5.158270
vt 50.007500 -5.202090
vt 50.010899 -5.193500
vt 49.996498 -5.000930
vt 50.007500 -5.020500
vt 50.020802 -5.000080
vt 49.981800 -5.002250
vt 50.087502 -4.997660
vt 50.111401 -5.002360
vt 50.091202 -4.989780
vt 50.063599 -4.988860
vt 50.067699 -5.000870
vt 50.088799 -5.001200
vt 50.087299 -5.006420
vt 50.090099 -5.018310
vt 50.123501 -5.000940
vt 50.110401 -5.015690
vt 50.134602 -5.002240
vt 50.078201 -4.990640
vt 50.081001 -5.011270
vt 50.003502 -5.212950
vt 49.992500 -5.225770
vt 50.018200 -5.265840
vt 50.015701 -5.221510
vt 49.868999 -4.858080
vt 49.891899 -4.849480
vt 49.876499 -4.841210
vt 49.977299 -5.014540
vt 49.989799 -5.022670
vt 49.998100 -5.012310
vt 49.963600 -5.028040
vt 49.970798 -5.032220
vt 49.888599 -4.876330
vt 49.909901 -4.877230
vt 49.912701 -4.887740
vt 49.926800 -4.895340
vt 49.918999 -4.880830
vt 49.976398 -5.058610
vt 49.985500 -5.033350
vt 49.978199 -5.025790
vt 49.982399 -5.116850
vt 49.990101 -5.139850
vt 49.994301 -5.116940
vt 50.001701 -5.138790
vt 49.932301 -4.918500
vt 49.943298 -4.942280
vt 49.942501 -4.920220
vt 49.889599 -4.836740
vt 49.882500 -4.814110
vt 49.865398 -4.834110
vt 50.006901 -5.114180
vt 50.012100 -5.148180
vt 50.017300 -5.129520
vt 49.960999 -4.999050
vt 49.969299 -4.972430
vt 49.943699 -4.983920
vt 50.003502 -5.253940
vt 50.020401 -5.300810
vt 49.911201 -4.913660
vt 49.921700 -4.898970
vt 49.984901 -5.150730
vt 49.989101 -5.172260
vt 50.001801 -5.182890
vt 50.017799 -5.181190
vt 49.889000 -4.867530
vt 49.986301 -5.068670
vt 50.008801 -5.150710
vt 49.920601 -4.853610
vt 49.901699 -4.856360
vt 49.999599 -5.172920
vt 50.014999 -5.068240
vt 49.972000 -4.996970
vt 49.984699 -4.992590
vt 49.907001 -4.840360
vt 49.993099 -5.169580
vt 49.950100 -4.887070
vt 49.963600 -4.926530
vt 49.974499 -4.951270
vt 49.929699 -4.879450
vt 49.988800 -5.197490
vt 49.948399 -4.926060
vt 49.986099 -5.089390
vt 49.921700 -4.866720
vt 49.902401 -4.823010
vt 49.951199 -4.910240
s 1
usemtl Meshpart1Mtl.002
f 1/1/1 2/2/1 3/3/1
f 4/4/2 5/5/2 6/6/2
f 7/7/3 8/5/3 9/4/3
f 10/8/4 11/9/4 12/10/4
f 15/3/5 16/2/5 17/11/5
f 18/12/6 19/13/6 20/14/6
f 21/15/7 22/16/7 23/17/7
f 24/9/8 25/14/8 26/18/8
f 27/19/9 28/10/9 29/20/9
f 30/21/10 31/22/10 32/23/10
f 33/24/11 34/25/12 35/26/13
f 34/25/12 33/24/11 36/27/14
f 37/28/15 38/29/15 39/30/15
f 40/31/16 41/32/16 42/33/16
f 43/22/17 44/21/17 45/34/17
f 47/35/18 46/32/18 48/36/18
f 49/25/19 50/37/19 51/26/20
f 52/24/21 53/38/21 54/27/21
f 55/39/22 56/40/22 57/41/22
f 58/42/23 59/37/23 60/25/23
f 58/42/23 60/25/23 61/40/23
f 62/38/24 63/43/24 64/27/24
f 65/25/25 66/27/25 67/43/25
f 68/40/26 69/39/27 70/44/27
f 71/42/28 72/44/28 73/45/28
f 74/21/29 75/46/29 76/34/29
f 77/33/30 78/22/30 79/34/30
f 80/44/31 81/47/32 82/48/32
f 84/49/33 83/50/33 85/51/33
f 86/44/34 87/49/35 88/45/36
f 89/31/37 90/33/37 91/34/37
f 92/21/38 93/52/38 94/46/38
f 95/32/39 96/50/40 97/36/40
f 96/50/40 95/32/39 98/51/40
f 99/48/41 100/36/41 101/50/41
f 102/4/42 103/17/42 104/7/42
f 105/21/43 106/23/43 107/15/43
f 108/53/44 109/4/44 110/6/44
f 111/30/45 112/54/45 113/55/45
f 114/55/46 115/56/46 116/57/46
f 117/1/47 118/56/47 119/55/47
f 120/5/48 121/57/48 122/58/48
f 123/55/49 124/54/50 125/1/49
f 126/59/51 127/60/51 128/61/51
f 129/59/52 130/61/52 131/62/52
f 132/60/53 133/63/53 134/61/53
f 135/64/54 136/65/54 137/66/54
f 138/67/55 139/68/55 140/69/55
f 141/70/56 142/71/56 143/72/57
f 144/73/58 145/74/58 146/75/58
f 147/76/59 148/77/59 149/78/59
f 150/76/60 151/79/60 152/77/60
f 153/80/61 154/81/61 155/82/61
f 156/81/62 157/71/62 158/70/62
f 159/83/63 160/84/63 161/85/63
f 162/83/64 163/86/64 164/84/64
f 165/83/65 166/87/65 167/86/65
f 168/88/66 169/89/66 170/90/66
f 171/72/67 172/91/67 173/92/67
f 174/84/68 175/93/68 176/85/68
f 177/94/69 178/95/69 179/96/69
f 180/97/70 181/96/70 182/93/70
f 183/98/71 184/99/72 185/100/72
f 186/101/73 187/102/73 188/103/73
f 189/78/74 190/77/74 191/104/74
f 192/105/75 193/88/75 194/106/75
f 195/81/76 196/107/77 197/71/77
f 200/79/78 201/76/78 202/108/78
f 203/109/79 204/110/79 205/80/79
f 206/111/80 207/79/80 208/108/80
f 209/111/81 210/108/81 211/101/82
f 212/112/83 213/111/83 214/101/83
f 215/113/84 216/94/84 217/96/84
f 218/100/85 219/112/85 220/101/85
f 221/84/86 222/97/86 223/93/86
f 224/93/87 225/114/88 226/85/88
f 229/115/89 230/100/89 231/99/89
f 232/91/90 233/72/90 234/116/91
f 235/104/92 236/117/92 237/118/92
f 238/98/93 239/101/93 240/103/93
f 241/119/94 242/78/94 243/104/94
f 244/104/95 245/110/95 246/119/95
f 247/120/96 248/77/97 249/79/96
f 250/106/98 251/115/98 252/99/98
f 253/111/99 254/112/99 255/121/99
f 256/104/100 257/118/100 258/110/100
f 259/85/101 260/122/101 261/123/101
f 262/87/102 263/83/102 264/90/102
f 265/118/103 266/124/103 267/110/103
f 268/110/104 269/124/105 270/80/104
f 271/88/106 272/90/106 273/125/106
f 274/126/107 275/125/108 276/127/109
f 277/106/110 278/128/111 279/115/110
f 280/129/112 281/115/112 282/128/112
f 283/71/113 284/130/113 285/72/113
f 286/71/114 287/107/114 288/130/114
f 289/79/115 290/111/116 291/121/116
f 292/83/117 293/131/118 294/90/118
f 295/128/119 296/106/120 297/126/120
f 298/129/121 299/112/121 300/100/121
f 301/112/122 302/129/122 303/132/122
f 304/122/123 305/85/123 306/114/123
f 307/100/124 308/115/124 309/129/125
f 310/107/126 311/133/126 312/130/126
f 313/134/127 314/120/128 315/79/127
f 316/83/129 317/85/129 318/131/129
f 319/109/130 320/80/130 321/82/130
f 322/131/131 323/85/132 324/123/132
f 325/135/133 326/117/133 327/104/133
f 328/70/134 329/92/134 330/82/134
f 331/136/135 332/137/135 333/114/135
f 336/130/136 337/138/137 338/72/137
f 339/138/138 340/73/138 341/68/138
f 342/73/139 343/138/139 344/74/139
f 345/92/140 346/139/140 347/82/140
f 348/140/141 349/141/141 350/142/141
f 351/141/142 352/143/142 353/142/142
f 354/144/143 355/145/143 356/146/143
f 357/147/144 358/148/144 359/149/144
f 360/150/145 361/151/145 362/146/145
f 363/150/146 364/152/146 365/151/146
f 366/153/147 367/154/147 368/155/147
f 369/156/148 370/157/148 371/147/148
f 372/158/149 373/140/150 374/142/149
f 375/154/151 376/150/152 377/146/151
f 378/155/153 379/154/153 380/145/153
f 381/159/154 382/160/155 383/161/156
f 384/162/157 385/161/157 386/163/157
f 387/162/158 388/164/159 389/161/159
f 390/159/158 389/161/159 388/164/159
f 391/146/160 392/165/160 393/166/160
f 394/167/161 395/168/161 396/169/161
f 397/168/162 398/170/162 399/171/162
f 400/148/163 401/147/163 402/172/163
f 403/173/164 404/169/164 405/168/164
f 406/170/165 407/174/165 408/171/165
f 409/175/166 410/176/166 411/177/166
f 412/144/167 413/146/167 414/166/168
f 415/178/169 416/179/169 417/180/169
f 418/181/170 419/182/171 420/183/171
f 421/178/172 422/176/172 423/184/172
f 424/185/173 425/186/173 426/181/173
f 427/141/174 428/165/174 429/143/174
f 430/181/175 431/187/175 432/182/175
f 433/151/176 434/188/176 435/143/176
f 436/189/177 437/166/177 438/190/178
f 439/141/179 440/140/179 441/191/179
f 442/191/180 443/140/180 444/192/180
f 445/193/181 446/194/181 447/195/181
f 448/196/182 449/194/182 450/193/182
f 451/197/183 452/198/183 453/199/183
f 454/200/184 455/201/184 456/202/184
f 457/198/185 458/203/185 459/204/185
f 460/197/186 461/203/186 462/198/186
f 463/205/187 464/206/187 465/207/187
f 466/197/188 467/199/189 468/208/188
f 469/203/190 470/209/190 471/204/190
f 474/210/191 475/211/191 476/212/191
f 477/213/192 478/210/193 479/212/192
f 480/214/194 481/215/194 482/216/194
f 483/217/195 484/218/195 485/219/195
f 486/217/196 487/220/196 488/221/197
f 489/215/198 490/222/199 491/223/198
f 492/224/200 493/225/200 494/226/201
f 495/227/202 496/228/203 497/229/202
f 498/230/204 499/231/204 500/232/204
f 499/231/204 501/233/204 500/232/204
f 502/234/205 503/235/205 504/236/205
f 505/237/206 506/238/206 507/239/206
f 510/240/207 511/241/208 512/242/208
f 513/243/209 514/244/209 515/245/209
f 516/235/210 517/245/210 518/244/210
f 519/212/211 520/246/211 521/247/211
f 522/248/212 523/234/212 524/249/212
f 525/231/213 526/250/214 527/251/214
f 528/252/215 529/253/215 530/241/215
f 531/214/216 532/254/217 533/215/216
f 534/227/218 535/255/218 536/228/218
f 537/232/219 538/233/220 539/240/219
f 540/256/220 539/240/219 538/233/220
f 541/228/221 542/255/221 543/232/221
f 544/223/222 545/257/222 546/258/222
f 547/228/223 548/232/223 549/240/223
f 550/233/224 551/259/225 552/256/225
f 553/228/226 554/240/226 555/260/226
f 556/244/227 557/261/227 558/262/227
f 559/257/228 560/263/228 561/258/228
f 562/231/229 563/264/229 564/233/229
f 565/225/230 566/236/230 567/265/230
f 568/266/231 569/244/231 570/267/231
f 571/225/232 572/268/233 573/226/233
f 574/252/234 575/251/234 576/269/234
f 577/266/235 578/270/235 579/244/235
f 580/271/236 581/230/237 582/232/238
f 583/226/239 584/268/239 585/272/239
f 586/263/240 587/273/240 588/237/240
f 589/226/241 590/272/241 591/223/241
f 592/274/242 593/270/242 594/266/242
f 595/217/243 596/262/243 597/261/243
f 596/262/243 595/217/243 598/219/244
f 599/263/245 600/237/245 601/258/245
f 602/237/246 603/273/246 604/238/246
f 605/218/247 606/229/247 607/228/247
f 608/228/248 609/260/249 610/218/249
f 611/215/250 612/258/250 613/237/250
f 616/252/251 617/213/251 618/253/251
f 619/269/252 620/211/252 621/252/252
l 13 14
l 198 199
l 227 228
l 334 335
l 472 473
l 508 509
l 614 615
